<?xml version="1.0" standalone="no"?>
<!DOCTYPE svg PUBLIC "-//W3C//DTD SVG 20010904//EN"
 "http://www.w3.org/TR/2001/REC-SVG-20010904/DTD/svg10.dtd">
<svg version="1.0" xmlns="http://www.w3.org/2000/svg"
 width="500.000000pt" height="500.000000pt" viewBox="0 0 500.000000 500.000000"
 preserveAspectRatio="xMidYMid meet">

<g transform="translate(0.000000,500.000000) scale(0.100000,-0.100000)"
fill="#000000" stroke="none">
<path d="M2706 4982 c-3 -5 1 -82 9 -173 13 -153 35 -509 35 -571 0 -17 5 -28
14 -28 17 0 26 22 26 66 0 52 40 326 50 344 6 10 10 -10 10 -60 0 -84 17 -300
26 -343 11 -54 28 -20 41 83 7 57 27 164 43 238 16 73 36 182 45 240 9 59 20
120 25 136 7 20 6 34 -1 43 -28 33 -48 5 -49 -67 -1 -40 -65 -429 -73 -436 -9
-9 -36 264 -37 368 0 63 -12 91 -30 72 -4 -5 -18 -92 -30 -194 -13 -102 -27
-189 -31 -194 -5 -6 -9 28 -9 80 0 120 -18 347 -30 379 -9 25 -24 32 -34 17z"/>
<path d="M2362 4888 c-13 -16 3 -647 16 -660 5 -5 29 -8 53 -6 37 2 45 7 47
26 3 20 -1 22 -37 22 l-41 0 0 159 0 160 28 3 c40 4 38 41 -3 48 l-30 5 -3
103 -3 102 41 -6 c36 -6 40 -5 40 15 0 35 -84 57 -108 29z"/>
<path d="M2135 4864 c-14 -14 -16 -28 -12 -68 4 -28 8 -89 11 -136 21 -335 30
-440 36 -451 7 -10 20 -10 57 -3 38 7 48 13 48 29 0 17 -6 20 -38 17 -24 -2
-39 2 -41 10 -3 7 -7 79 -11 159 l-6 146 31 7 c43 8 38 40 -8 44 l-32 3 0 77
c0 42 -3 87 -6 100 -6 20 -3 22 34 22 70 0 63 41 -9 55 -27 5 -40 2 -54 -11z"/>
<path d="M1693 4854 c-18 -9 -35 -24 -38 -35 -3 -10 5 -71 19 -136 13 -65 41
-217 61 -338 36 -212 47 -251 66 -239 15 9 10 54 -21 215 -32 160 -32 154 13
180 9 5 17 16 17 25 0 20 -27 29 -45 14 -9 -7 -17 -11 -19 -9 -6 8 -46 224
-46 250 0 20 6 28 26 33 19 5 24 12 22 28 -4 28 -16 31 -55 12z"/>
<path d="M1893 4823 c-19 -7 -16 -75 12 -256 13 -89 31 -218 39 -286 9 -68 18
-127 21 -129 3 -3 10 -1 15 4 7 7 4 50 -9 130 -27 163 -31 203 -21 209 9 6 12
-4 50 -155 25 -98 54 -170 69 -170 17 0 13 26 -14 103 -14 40 -36 115 -48 167
-21 87 -22 100 -10 145 9 32 12 77 9 125 -5 64 -9 78 -31 98 -25 21 -55 27
-82 15z m65 -54 c9 -16 12 -53 9 -111 -3 -83 -9 -109 -23 -95 -9 8 -34 219
-27 230 8 13 27 2 41 -24z"/>
<path d="M3136 4792 c-36 -69 -73 -376 -63 -519 7 -99 29 -146 69 -151 17 -2
34 4 46 16 72 72 127 493 78 595 -21 44 -69 87 -97 87 -10 0 -25 -12 -33 -28z
m94 -59 c21 -27 22 -34 16 -153 -13 -240 -57 -420 -104 -420 -12 0 -22 9 -26
23 -20 74 13 500 43 555 16 30 45 28 71 -5z"/>
<path d="M3415 4678 c-36 -87 -85 -365 -85 -483 0 -69 15 -132 38 -157 24 -28
67 -23 91 10 67 94 129 471 93 563 -6 15 -25 43 -42 63 -42 47 -76 49 -95 4z
m89 -49 c31 -36 32 -58 11 -224 -27 -210 -75 -349 -118 -343 -29 4 -37 56 -26
178 11 129 56 369 75 397 19 30 27 29 58 -8z"/>
<path d="M1394 4594 c-4 -21 -4 -77 -1 -125 3 -49 4 -89 2 -89 -2 0 -20 31
-40 69 -20 38 -45 77 -56 87 -17 16 -19 16 -25 0 -8 -22 5 -50 71 -156 56 -89
82 -165 113 -330 10 -48 22 -89 27 -91 21 -8 15 66 -16 218 -25 119 -33 186
-34 273 -1 63 -2 130 -3 148 -3 45 -29 42 -38 -4z"/>
<path d="M3696 4537 c-8 -17 -17 -54 -20 -82 -4 -27 -32 -150 -62 -273 -31
-123 -53 -230 -50 -237 3 -8 20 -21 38 -28 18 -8 39 -21 47 -30 7 -9 17 -14
22 -11 19 12 7 40 -26 62 -44 28 -45 49 -4 202 24 93 67 268 96 396 3 14 -1
23 -12 27 -12 5 -20 -2 -29 -26z"/>
<path d="M1144 4465 c-67 -38 -89 -59 -79 -75 4 -6 16 -5 35 5 28 15 29 14 39
-18 97 -306 140 -448 146 -474 8 -38 23 -51 31 -28 10 24 -9 99 -77 306 -75
231 -78 251 -47 264 21 9 39 55 21 55 -4 0 -35 -16 -69 -35z"/>
<path d="M4043 4372 c-51 -84 -190 -337 -249 -455 -51 -101 -54 -137 -5 -57
57 92 311 550 311 559 0 29 -21 12 -57 -47z"/>
<path d="M4160 4324 c-6 -15 -13 -77 -16 -138 -7 -131 -51 -347 -95 -462 -17
-45 -29 -90 -27 -100 4 -22 26 -30 32 -12 3 7 30 93 62 190 44 137 72 204 120
290 67 119 78 158 44 158 -15 0 -31 -23 -65 -92 -44 -89 -45 -91 -40 -48 14
118 17 227 6 234 -7 4 -15 -4 -21 -20z"/>
<path d="M920 4275 c0 -19 13 -74 29 -122 16 -49 52 -168 80 -267 27 -98 54
-183 60 -189 8 -8 17 -5 31 11 11 12 34 29 50 37 18 9 30 23 30 35 0 26 -15
25 -52 -2 -29 -20 -32 -20 -43 -4 -7 9 -25 63 -40 119 -15 56 -42 154 -60 217
-19 63 -39 134 -45 158 -14 53 -40 58 -40 7z"/>
<path d="M752 4150 c-36 -26 -42 -36 -42 -66 0 -19 7 -49 16 -66 9 -17 42
-108 74 -202 32 -94 70 -197 84 -229 22 -49 29 -56 44 -48 35 19 74 69 70 90
-3 21 -4 21 -40 -9 l-36 -30 -47 140 -47 141 26 24 c28 26 34 55 12 55 -7 0
-19 -7 -26 -15 -24 -29 -36 -15 -63 71 -15 48 -26 87 -25 89 54 36 68 50 68
66 0 27 -20 24 -68 -11z"/>
<path d="M577 4005 c-15 -14 -14 -22 10 -83 78 -200 94 -246 117 -325 38 -130
42 -178 18 -200 -10 -10 -26 -15 -34 -12 -14 6 -119 214 -184 365 -33 79 -49
99 -65 83 -9 -9 11 -62 80 -215 121 -268 153 -313 202 -288 57 31 60 134 9
309 -30 105 -122 367 -132 376 -3 3 -13 -1 -21 -10z"/>
<path d="M4413 4008 c-6 -7 -22 -36 -36 -64 -32 -63 -153 -265 -208 -346 -22
-32 -39 -66 -37 -75 6 -34 29 -23 64 33 l36 57 24 -29 c33 -41 37 -62 19 -119
-18 -59 -19 -91 -4 -100 16 -10 18 -6 49 111 15 60 33 122 40 139 20 52 100
335 100 354 0 10 -8 25 -19 35 -14 13 -20 14 -28 4z m-33 -200 c-27 -94 -71
-221 -80 -231 -8 -9 -50 44 -50 63 0 17 140 253 147 247 2 -3 -5 -38 -17 -79z"/>
<path d="M4572 3824 c-24 -46 -212 -527 -212 -544 0 -35 18 -30 30 7 26 82 93
243 101 243 14 0 11 -21 -20 -142 -34 -136 -43 -199 -30 -218 8 -13 10 -13 19
0 5 8 10 31 10 50 0 19 14 93 32 163 30 124 33 130 68 152 26 16 44 40 64 85
26 56 27 65 16 109 -6 27 -24 63 -39 82 -27 32 -29 32 -39 13z m51 -97 c-1
-43 -35 -109 -70 -137 -37 -29 -41 -12 -13 53 13 29 31 72 42 96 14 34 21 42
30 33 7 -7 12 -27 11 -45z"/>
<path d="M304 3660 c-35 -14 -66 -61 -60 -90 2 -15 45 -99 95 -188 50 -89 106
-193 126 -232 19 -38 40 -70 45 -70 25 0 20 34 -13 84 -48 72 -110 197 -102
205 4 3 19 -8 33 -25 153 -176 164 -185 179 -148 4 11 -11 32 -49 67 -56 53
-115 124 -136 164 -7 12 -12 45 -12 73 0 65 -51 172 -80 169 -3 0 -15 -4 -26
-9z m35 -66 c23 -29 45 -116 39 -159 -3 -27 -8 -21 -51 64 -27 51 -46 99 -43
107 8 22 33 17 55 -12z"/>
<path d="M4771 3533 c-39 -48 -232 -443 -229 -466 5 -34 29 -26 42 15 7 20 24
56 38 80 14 23 54 99 89 168 49 96 65 119 67 100 4 -34 -63 -397 -90 -488
l-21 -73 20 -20 20 -20 64 91 c129 182 220 333 217 359 -5 42 -24 34 -58 -26
-50 -88 -200 -316 -206 -311 -2 3 17 90 42 194 51 208 75 375 58 402 -17 26
-30 25 -53 -5z"/>
<path d="M1136 3508 c-30 -46 -66 -216 -66 -312 0 -89 20 -215 60 -376 6 -25
15 -65 20 -90 41 -212 125 -434 281 -743 38 -76 69 -148 69 -161 0 -13 -7 -41
-16 -62 -59 -139 -97 -349 -93 -516 1 -82 -2 -102 -29 -175 -47 -123 -65 -312
-42 -434 22 -113 126 -275 230 -356 30 -24 73 -57 95 -74 53 -42 147 -88 198
-98 23 -5 87 -20 142 -35 148 -38 219 -46 444 -46 148 0 218 4 255 14 28 8 85
24 127 35 102 28 202 73 266 122 29 21 57 39 63 39 6 0 54 40 108 89 157 143
212 258 212 446 -1 123 -9 163 -60 270 -38 81 -40 88 -40 186 0 57 -4 130 -9
163 -5 34 -15 106 -22 161 -6 55 -16 113 -20 129 -10 36 -4 46 80 139 152 168
307 622 382 1122 15 99 15 377 0 461 -11 62 -37 114 -56 114 -19 0 -266 -105
-296 -126 -37 -25 -192 -182 -258 -259 -49 -58 -94 -132 -119 -195 -12 -30
-43 -91 -68 -135 -49 -86 -89 -175 -150 -332 -21 -57 -44 -105 -51 -107 -6 -3
-24 -1 -40 4 -15 5 -46 14 -68 20 -54 15 -411 33 -507 25 l-78 -6 -11 28 c-22
55 -123 250 -188 363 -241 423 -367 575 -563 675 -118 61 -159 68 -182 33z
m150 -153 c152 -67 337 -299 551 -690 85 -155 128 -258 116 -278 -4 -8 -35
-36 -69 -63 -125 -100 -207 -186 -275 -286 -22 -33 -45 -58 -50 -56 -6 2 -48
84 -95 183 -88 186 -179 428 -207 550 -102 440 -101 437 -89 532 13 95 26 133
46 133 9 0 41 -11 72 -25z m2395 -25 c13 -45 9 -244 -6 -356 -37 -278 -55
-352 -166 -691 -40 -124 -105 -254 -169 -338 -54 -72 -69 -87 -81 -80 -3 3
-16 33 -29 67 -12 35 -35 81 -50 103 -27 39 -175 189 -252 255 -21 18 -38 40
-38 49 0 20 73 218 100 271 171 342 217 412 378 577 98 101 113 112 172 132
36 12 72 26 80 31 25 17 54 7 61 -20z m-1127 -1055 c129 -17 199 -36 279 -76
65 -33 198 -155 259 -237 45 -60 102 -203 123 -306 27 -134 55 -387 55 -493 0
-75 3 -88 43 -170 41 -86 42 -91 45 -206 4 -114 3 -119 -27 -184 -47 -98 -164
-207 -350 -320 -51 -32 -149 -67 -268 -97 -91 -23 -121 -26 -287 -26 -101 0
-218 5 -260 10 -105 15 -343 76 -391 101 -148 77 -315 250 -347 359 -8 27 -13
98 -13 181 l0 136 40 79 40 79 -4 151 c-4 167 7 235 61 396 85 253 172 387
341 524 57 46 87 64 108 64 17 0 51 11 77 25 44 24 55 25 207 25 88 0 209 -7
269 -15z"/>
<path d="M1799 1518 c-19 -27 -24 -48 -27 -125 -7 -144 28 -210 103 -201 53 6
70 45 73 171 3 104 2 115 -20 147 -20 29 -31 36 -65 38 -36 3 -43 -1 -64 -30z"/>
<path d="M2792 1527 c-30 -31 -42 -78 -42 -157 0 -79 12 -126 42 -157 27 -29
78 -31 102 -4 59 66 61 256 3 319 -28 30 -77 29 -105 -1z"/>
<path d="M2340 1023 c-27 -10 -50 -47 -50 -83 0 -19 15 -75 32 -125 27 -76 32
-104 33 -182 0 -73 -3 -96 -17 -109 -15 -15 -18 -15 -46 5 -28 19 -32 20 -46
5 -20 -19 -20 -37 -1 -73 21 -41 72 -54 116 -30 15 8 27 6 53 -10 44 -27 58
-26 90 6 22 22 26 34 24 67 -3 46 -20 56 -45 27 -34 -40 -40 -27 -45 100 -4
120 -4 120 29 186 54 107 40 192 -35 212 -40 12 -68 13 -92 4z"/>
<path d="M79 3499 c-29 -29 -68 -117 -75 -172 -6 -39 -2 -55 26 -109 116 -225
227 -368 287 -368 55 0 121 101 111 170 -5 38 -21 27 -38 -24 -8 -25 -25 -55
-37 -68 -22 -21 -24 -21 -57 -5 -42 19 -101 96 -154 197 -21 41 -49 91 -61
112 -51 84 -46 150 15 217 36 40 44 71 19 71 -8 0 -24 -9 -36 -21z"/>
</g>
</svg>
