<?xml version="1.0" standalone="no"?>
<!DOCTYPE svg PUBLIC "-//W3C//DTD SVG 20010904//EN"
 "http://www.w3.org/TR/2001/REC-SVG-20010904/DTD/svg10.dtd">
<svg version="1.0" xmlns="http://www.w3.org/2000/svg"
 width="500.000000pt" height="500.000000pt" viewBox="0 0 500.000000 500.000000"
 preserveAspectRatio="xMidYMid meet">

<g transform="translate(0.000000,500.000000) scale(0.100000,-0.100000)"
fill="#000000" stroke="none">
<path d="M2657 4413 c-3 -5 1 -60 9 -123 7 -63 16 -178 19 -255 7 -164 11
-185 29 -185 9 0 16 18 21 53 11 87 37 231 45 246 4 7 10 -40 14 -105 10 -155
18 -199 36 -199 10 0 18 22 26 75 7 41 30 147 53 235 47 188 54 248 29 253
-13 2 -18 -6 -23 -35 -17 -105 -69 -343 -73 -338 -9 8 -31 194 -32 256 0 42
-4 58 -15 63 -20 7 -19 9 -47 -159 -12 -77 -24 -131 -25 -120 -1 11 -7 84 -12
163 -6 78 -15 151 -21 162 -11 20 -25 26 -33 13z"/>
<path d="M2334 4345 c-9 -21 2 -444 12 -468 9 -24 99 -21 99 3 0 10 -12 16
-37 18 l-38 3 0 114 0 114 28 3 c16 2 27 9 27 18 0 9 -11 16 -27 18 -27 3 -28
5 -28 68 0 35 1 67 3 72 1 4 17 6 35 4 23 -3 32 0 32 12 0 19 -8 24 -58 32
-34 5 -43 3 -48 -11z"/>
<path d="M2122 4327 c-10 -11 -10 -37 -3 -108 6 -52 16 -154 22 -226 7 -80 16
-137 24 -143 18 -15 90 2 90 20 0 11 -10 14 -36 12 l-36 -3 -6 92 c-11 148
-11 149 18 149 16 0 25 6 25 15 0 10 -10 15 -30 15 -29 0 -30 2 -30 44 0 24
-3 58 -7 76 -6 32 -5 33 26 28 19 -3 36 1 43 9 15 18 6 25 -44 30 -31 4 -47 1
-56 -10z"/>
<path d="M1703 4318 c-31 -15 -34 -29 -17 -85 8 -26 35 -137 60 -247 24 -109
47 -202 50 -208 4 -5 11 -5 19 2 14 12 9 45 -25 180 -12 45 -20 83 -18 85 2 1
13 8 26 14 34 18 29 44 -7 36 -28 -6 -28 -6 -50 79 -27 107 -26 112 4 120 31
8 33 36 3 35 -13 0 -33 -5 -45 -11z"/>
<path d="M1897 4296 c-16 -16 -17 -4 33 -293 25 -146 37 -193 48 -193 11 0 13
7 8 28 -19 80 -37 196 -34 215 2 14 15 -13 36 -73 37 -111 68 -168 83 -153 7
7 2 27 -14 60 -14 26 -35 82 -48 123 -19 64 -21 80 -11 117 15 53 15 77 2 124
-14 51 -72 76 -103 45z m63 -35 c19 -36 7 -174 -13 -151 -4 5 -27 140 -27 159
0 18 29 12 40 -8z"/>
<path d="M3055 4277 c-25 -39 -56 -211 -58 -322 -2 -141 30 -194 96 -164 33
15 61 75 81 170 36 177 30 252 -21 301 -42 40 -78 45 -98 15z m78 -31 c29 -22
34 -62 20 -174 -16 -132 -36 -203 -68 -239 -24 -27 -25 -28 -40 -9 -20 26 -20
137 1 274 23 150 42 182 87 148z"/>
<path d="M3305 4168 c-36 -79 -67 -248 -63 -339 4 -87 22 -119 69 -119 53 0
95 81 128 247 29 138 14 209 -49 247 -45 26 -59 20 -85 -36z m85 2 c34 -18 39
-58 18 -174 -31 -176 -76 -274 -115 -250 -33 21 -18 204 33 386 5 18 31 48 40
48 3 0 14 -4 24 -10z"/>
<path d="M1435 4129 c-4 -16 -4 -57 0 -90 4 -32 5 -59 2 -59 -3 0 -15 15 -26
33 -30 49 -70 89 -81 82 -19 -11 -10 -30 46 -100 64 -80 86 -125 115 -239 12
-45 25 -85 30 -90 23 -25 18 38 -16 175 -24 98 -36 169 -34 202 4 85 0 117
-15 117 -8 0 -17 -14 -21 -31z"/>
<path d="M3565 4053 c-9 -32 -39 -133 -66 -225 -28 -92 -48 -172 -44 -178 3
-5 14 -10 24 -10 9 0 26 -7 37 -15 10 -8 27 -15 36 -15 26 0 11 28 -23 46 -37
19 -37 33 7 174 19 63 46 149 59 190 24 77 24 90 0 90 -9 0 -21 -22 -30 -57z"/>
<path d="M1188 4033 c-31 -14 -59 -32 -62 -39 -6 -16 17 -18 44 -4 17 9 25 -7
90 -173 39 -100 75 -192 81 -205 13 -33 32 -17 25 21 -3 17 -35 103 -71 193
-36 89 -65 168 -65 176 0 8 11 20 25 26 29 13 33 32 8 31 -10 0 -44 -12 -75
-26z"/>
<path d="M3923 3998 c-90 -100 -353 -503 -279 -428 31 31 306 424 306 437 0
18 -3 17 -27 -9z"/>
<path d="M4006 3935 c-3 -9 -8 -53 -12 -98 -7 -96 -42 -232 -86 -334 -28 -65
-32 -103 -10 -103 4 0 25 44 46 98 53 135 86 198 145 279 55 76 64 106 30 101
-14 -2 -36 -26 -61 -68 l-40 -65 6 40 c4 22 9 68 13 103 5 52 3 62 -9 62 -9 0
-18 -7 -22 -15z"/>
<path d="M994 3915 c-4 -8 12 -62 34 -118 22 -56 57 -149 77 -207 20 -58 40
-109 45 -114 4 -4 21 0 37 11 15 10 37 23 47 29 11 6 22 16 24 22 5 17 -24 15
-52 -3 -21 -14 -24 -14 -38 2 -9 10 -29 59 -46 108 -91 267 -112 312 -128 270z"/>
<path d="M838 3809 c-44 -23 -50 -54 -20 -104 10 -16 35 -70 56 -120 57 -135
105 -225 118 -225 22 0 78 45 78 63 0 22 -6 22 -40 -3 -16 -11 -31 -17 -34
-12 -2 4 -23 50 -45 101 l-41 93 25 20 c14 11 25 24 25 29 0 13 -34 11 -48 -3
-15 -15 -24 -5 -47 52 -9 25 -19 51 -22 58 -3 7 7 17 26 23 20 7 31 18 31 30
0 24 -15 23 -62 -2z"/>
<path d="M673 3699 c-8 -8 6 -45 52 -140 76 -156 113 -264 98 -288 -5 -9 -19
-17 -31 -19 -24 -4 -69 58 -152 208 -61 111 -75 129 -91 113 -14 -14 147 -295
196 -340 40 -38 57 -41 85 -13 29 29 27 110 -5 197 -35 98 -121 287 -132 290
-5 2 -14 -2 -20 -8z"/>
<path d="M4202 3648 c-22 -35 -81 -114 -132 -177 -82 -102 -101 -141 -71 -141
5 0 24 18 43 40 l33 41 29 -30 29 -30 -17 -46 c-18 -47 -15 -80 6 -73 6 2 24
40 38 84 15 43 48 135 74 204 61 161 61 157 46 175 -21 26 -36 17 -78 -47z m8
-95 c-12 -32 -33 -84 -47 -116 l-26 -58 -24 23 c-14 13 -21 28 -18 38 8 20
129 179 133 175 2 -2 -6 -30 -18 -62z"/>
<path d="M4392 3567 c-5 -7 -53 -99 -107 -205 -68 -133 -95 -196 -88 -203 7
-7 27 22 63 95 29 58 57 106 62 106 5 0 7 -8 4 -17 -3 -10 -16 -54 -30 -98
-14 -44 -26 -98 -28 -119 -4 -52 19 -60 27 -9 3 21 20 82 36 135 26 85 33 99
55 104 34 9 84 79 84 117 0 32 -32 92 -54 100 -8 3 -19 0 -24 -6z m44 -52 c15
-38 -42 -125 -81 -125 -13 0 -9 14 21 70 37 71 50 82 60 55z"/>
<path d="M386 3425 c-14 -13 -26 -28 -26 -33 0 -9 30 -54 173 -260 69 -98 97
-125 97 -91 0 5 -20 35 -44 66 -50 67 -91 133 -81 133 4 0 39 -29 78 -65 69
-63 110 -86 125 -70 4 4 -8 19 -27 34 -19 14 -61 51 -93 81 -54 51 -60 60 -67
111 -14 107 -75 150 -135 94z m73 -31 c21 -27 35 -79 29 -110 -2 -13 -16 2
-46 49 -24 36 -41 71 -37 77 11 17 33 11 54 -16z"/>
<path d="M4580 3360 c-20 -20 -163 -233 -206 -307 -17 -31 -17 -34 -2 -50 16
-15 18 -15 27 10 12 31 183 289 188 283 7 -7 -49 -253 -77 -336 -27 -82 -28
-86 -11 -103 18 -18 21 -16 89 61 114 130 192 232 192 252 0 38 -20 29 -66
-32 -76 -100 -176 -219 -180 -215 -3 2 12 55 32 118 62 198 78 305 50 328 -12
10 -19 8 -36 -9z"/>
<path d="M1214 3350 c-15 -6 -30 -32 -49 -83 -36 -99 -38 -209 -6 -322 13 -44
26 -92 28 -108 3 -15 9 -30 14 -33 5 -3 9 -15 9 -27 0 -41 44 -154 120 -307
60 -122 73 -144 152 -263 32 -49 58 -93 58 -98 0 -5 -11 -31 -24 -57 -58 -116
-95 -288 -81 -380 5 -37 1 -55 -30 -119 -32 -67 -37 -87 -42 -178 -5 -82 -2
-113 12 -159 45 -144 296 -333 485 -366 25 -4 79 -15 120 -23 121 -26 244 -37
424 -37 250 0 425 38 608 133 161 83 256 160 309 252 27 47 29 57 29 164 l0
115 -40 67 c-28 47 -40 79 -40 106 0 56 -28 268 -44 338 -8 33 -11 65 -8 71 4
6 35 35 69 63 93 76 167 207 261 461 66 178 112 398 112 537 0 163 -24 243
-74 243 -30 0 -214 -59 -266 -86 -104 -53 -287 -223 -342 -319 -23 -38 -60
-96 -83 -127 -24 -31 -70 -113 -104 -182 -34 -69 -67 -126 -74 -126 -7 0 -43
7 -82 16 -50 11 -141 17 -315 19 l-245 4 -58 93 c-90 145 -263 374 -357 472
-106 111 -188 169 -293 210 -103 41 -127 46 -153 36z m182 -151 c114 -57 270
-221 452 -476 56 -79 116 -188 110 -202 -1 -5 -50 -40 -108 -79 -59 -40 -137
-103 -179 -146 -40 -42 -77 -76 -81 -76 -11 0 -138 215 -195 330 -47 93 -121
310 -165 483 -14 53 -9 137 11 181 12 25 17 28 50 23 21 -3 68 -20 105 -38z
m2168 9 c11 -41 6 -201 -9 -278 -32 -174 -49 -233 -111 -388 -36 -90 -86 -196
-111 -235 -52 -83 -130 -167 -154 -167 -10 0 -23 16 -33 40 -9 22 -35 61 -59
87 -43 46 -165 144 -224 178 -18 11 -33 27 -33 36 0 34 76 177 166 315 76 115
112 159 191 233 123 114 160 139 253 172 95 34 116 35 124 7z m-1159 -768
c292 -15 401 -50 552 -180 75 -64 87 -79 127 -163 24 -50 48 -117 55 -147 21
-106 41 -261 41 -322 0 -55 5 -70 43 -132 41 -69 42 -74 42 -157 0 -82 -2 -89
-35 -138 -41 -59 -117 -116 -250 -188 -104 -56 -153 -73 -305 -104 -91 -19
-123 -21 -350 -16 -137 3 -266 9 -285 15 -19 5 -62 15 -95 22 -123 24 -152 34
-234 79 -96 52 -202 145 -234 205 -31 59 -31 223 0 282 12 22 29 46 37 53 13
11 16 37 16 143 0 156 11 199 88 358 46 95 68 127 126 186 85 86 216 174 258
174 16 0 39 5 51 12 21 12 85 24 137 27 14 0 111 -4 215 -9z"/>
<path d="M1827 1889 c-53 -41 -60 -172 -11 -224 19 -21 32 -26 61 -23 55 5 78
42 78 127 0 76 -15 113 -52 130 -34 15 -47 14 -76 -10z"/>
<path d="M2733 1886 c-25 -22 -28 -31 -31 -103 -4 -74 -2 -81 23 -111 37 -44
83 -44 120 0 25 30 27 37 23 111 -3 72 -6 81 -31 103 -16 13 -39 24 -52 24
-13 0 -36 -11 -52 -24z"/>
<path d="M2293 1505 c-31 -22 -29 -61 7 -142 29 -65 40 -154 24 -197 -7 -18
-45 -21 -61 -5 -17 17 -43 3 -43 -24 0 -42 32 -61 91 -54 36 5 60 2 81 -9 16
-8 38 -12 48 -9 23 7 60 52 60 72 0 21 -28 27 -56 13 -13 -8 -26 -11 -29 -8
-3 3 -7 43 -8 89 -3 69 0 89 15 110 25 33 47 97 41 118 -11 41 -33 55 -90 59
-42 2 -64 -1 -80 -13z"/>
<path d="M218 3339 c-31 -17 -71 -98 -72 -143 -1 -43 17 -72 120 -206 80 -105
148 -149 197 -131 32 13 67 62 74 106 8 48 -21 49 -37 1 -37 -114 -126 -68
-259 135 -72 108 -74 130 -16 189 48 49 44 79 -7 49z"/>
</g>
</svg>
