<?xml version="1.0" standalone="no"?>
<!DOCTYPE svg PUBLIC "-//W3C//DTD SVG 20010904//EN"
 "http://www.w3.org/TR/2001/REC-SVG-20010904/DTD/svg10.dtd">
<svg version="1.0" xmlns="http://www.w3.org/2000/svg"
 width="500.000000pt" height="500.000000pt" viewBox="0 0 500.000000 500.000000"
 preserveAspectRatio="xMidYMid meet">

<g transform="translate(0.000000,500.000000) scale(0.100000,-0.100000)"
fill="#000000" stroke="none">
<path d="M2182 3904 c-13 -9 -19 -20 -15 -27 4 -7 11 -173 14 -370 5 -296 9
-361 21 -373 8 -8 22 -12 31 -8 16 6 17 33 12 318 -5 279 -4 308 10 281 29
-59 98 -282 119 -385 20 -99 23 -105 46 -105 34 0 40 15 116 282 35 124 65
228 67 229 1 1 2 -133 2 -299 0 -166 3 -312 7 -324 8 -25 47 -32 50 -10 1 6 2
53 3 102 0 50 4 223 9 385 8 266 7 296 -7 308 -57 48 -109 -56 -192 -385 -18
-74 -35 -137 -38 -139 -2 -2 -14 33 -26 78 -45 162 -167 445 -197 455 -5 2
-19 -4 -32 -13z"/>
<path d="M2852 3890 c-32 -14 -25 -44 12 -48 28 -3 28 -4 22 -55 -16 -132 -26
-260 -26 -352 0 -55 -3 -130 -6 -167 l-7 -67 -35 -3 c-78 -7 -36 -51 63 -66
64 -11 95 -3 95 24 0 9 -14 21 -31 27 l-31 12 7 145 c10 232 26 473 31 482 3
4 20 8 39 8 37 0 54 25 32 47 -17 17 -134 26 -165 13z"/>
<path d="M1715 3826 c-45 -45 -45 -166 0 -385 44 -211 95 -327 159 -358 43
-20 80 -11 116 27 52 56 64 192 34 415 -32 243 -89 325 -228 325 -47 0 -61 -4
-81 -24z m161 -41 c29 -20 39 -48 75 -228 27 -135 31 -174 27 -270 -4 -129
-21 -170 -67 -165 -50 6 -109 171 -146 413 -29 189 -30 206 -5 238 16 21 30
27 59 27 20 0 46 -7 57 -15z"/>
<path d="M3210 3811 c0 -29 17 -41 71 -52 32 -6 59 -14 59 -18 0 -3 -30 -58
-66 -121 -136 -237 -224 -436 -224 -504 0 -22 5 -26 29 -26 16 0 48 -7 72 -15
36 -13 45 -13 57 -2 11 12 11 17 -3 30 -8 9 -31 19 -50 23 -19 3 -35 12 -35
19 0 22 207 450 250 516 42 65 49 99 26 119 -33 27 -186 53 -186 31z"/>
<path d="M1399 3716 c-115 -40 -139 -52 -139 -71 0 -23 15 -25 66 -10 26 8 49
13 50 12 7 -8 204 -619 204 -632 0 -11 7 -15 23 -13 39 5 26 72 -72 366 -50
151 -91 282 -91 291 0 13 10 21 32 25 39 8 58 23 58 47 0 26 -17 24 -131 -15z"/>
<path d="M3624 3644 c-35 -88 -160 -348 -232 -483 -57 -107 -69 -137 -61 -152
22 -41 49 -19 94 79 31 68 31 68 95 27 l42 -27 -8 -51 c-13 -88 -11 -128 9
-141 23 -14 34 3 42 64 6 42 57 318 107 573 20 107 20 109 2 127 -11 10 -31
22 -45 25 -24 6 -28 2 -45 -41z m2 -251 c-14 -76 -34 -166 -44 -201 l-18 -62
-46 29 -47 30 25 58 c36 82 147 293 152 289 2 -2 -8 -66 -22 -143z"/>
<path d="M1066 3568 c-57 -57 -58 -157 -4 -238 13 -19 48 -53 78 -77 30 -24
72 -57 93 -74 52 -42 79 -100 85 -181 5 -76 -10 -113 -53 -124 -28 -7 -34 -38
-9 -48 26 -10 73 22 95 66 18 35 21 54 17 122 -6 116 -36 167 -151 258 -48 38
-96 83 -107 100 -40 67 -34 141 16 168 38 22 39 54 1 58 -21 3 -36 -5 -61 -30z"/>
<path d="M3942 3528 c-5 -7 -13 -29 -17 -48 -9 -39 -125 -342 -191 -498 -60
-140 -59 -156 15 -181 74 -25 138 18 188 124 22 48 28 74 28 131 0 69 1 72 31
92 19 12 44 46 63 83 41 82 43 162 6 225 -39 67 -98 102 -123 72z m83 -134
c-1 -100 -70 -217 -118 -199 -13 5 -9 22 24 106 49 127 67 161 82 156 8 -2 12
-26 12 -63z m-125 -335 c0 -100 -60 -209 -116 -209 -33 0 -31 14 15 123 22 50
47 110 55 131 16 37 17 38 31 20 8 -10 15 -40 15 -65z"/>
<path d="M828 3439 c-10 -5 -18 -17 -18 -26 0 -9 33 -97 74 -197 131 -320 166
-466 121 -500 -25 -19 -59 -20 -73 -3 -32 38 -153 250 -214 372 -72 146 -96
177 -123 155 -22 -18 -19 -32 19 -97 18 -32 75 -136 126 -231 133 -246 190
-305 265 -269 54 26 68 65 63 172 -4 76 -13 114 -57 240 -29 83 -71 204 -94
270 -42 121 -54 135 -89 114z"/>
<path d="M4287 3278 c-9 -7 -37 -59 -61 -115 -25 -57 -76 -160 -114 -230 -149
-275 -160 -306 -107 -319 12 -3 42 -25 66 -50 24 -24 51 -44 61 -44 33 0 19
36 -33 84 -62 57 -62 57 23 211 33 61 91 171 129 245 38 74 77 147 87 162 27
44 -10 86 -51 56z"/>
<path d="M300 3134 c-62 -58 -110 -150 -110 -212 0 -47 1 -49 122 -235 173
-266 301 -361 398 -295 59 40 100 103 100 155 0 37 -3 44 -17 41 -10 -2 -30
-26 -45 -53 -50 -92 -92 -106 -170 -56 -52 33 -130 126 -180 214 -18 32 -55
93 -83 135 -44 67 -50 84 -50 129 0 42 5 58 31 90 17 21 41 43 52 49 65 33 84
84 32 84 -23 0 -44 -12 -80 -46z"/>
<path d="M4566 2999 c-14 -17 -26 -36 -26 -43 0 -7 -39 -73 -87 -147 -108
-166 -213 -355 -213 -382 0 -27 101 -127 128 -127 34 0 26 26 -24 80 l-46 50
85 131 c48 72 88 137 90 143 3 6 23 -6 45 -28 22 -21 45 -35 51 -32 20 13 11
43 -24 77 -19 19 -35 37 -35 41 0 9 110 172 119 175 3 2 21 -20 40 -47 25 -36
41 -50 58 -50 13 0 23 6 23 14 0 20 -77 132 -107 156 -35 27 -47 25 -77 -11z"/>
<path d="M1844 2858 c-9 -18 -20 -44 -24 -57 -5 -22 -15 -26 -86 -38 -101 -17
-273 -97 -252 -118 3 -4 39 9 80 28 101 48 238 75 238 46 0 -6 -52 -250 -115
-542 -126 -587 -182 -854 -195 -937 -5 -30 -11 -71 -15 -90 l-5 -35 16 40 c19
48 68 234 259 984 79 310 146 565 149 568 7 7 63 -25 102 -59 20 -18 54 -57
76 -86 42 -57 132 -224 162 -302 38 -97 122 -269 168 -343 65 -105 120 -169
186 -214 56 -39 152 -130 152 -145 0 -5 35 -82 78 -171 150 -312 271 -451 427
-492 66 -17 205 -21 205 -5 0 6 -25 10 -55 10 -72 0 -150 17 -207 46 -134 67
-244 231 -394 581 l-14 33 52 -21 c89 -35 121 -58 162 -114 57 -79 132 -111
200 -85 84 32 98 295 22 443 -25 50 -39 66 -76 85 -114 57 -390 -2 -479 -104
l-31 -35 -48 41 c-104 92 -151 171 -345 582 -97 206 -188 324 -288 377 -43 23
-44 24 -40 67 1 25 0 56 -3 69 -9 36 -42 32 -62 -7z m32 -73 c-4 -14 -13 -25
-20 -25 -16 0 -11 35 8 59 14 17 20 -1 12 -34z m-22 -63 c8 -14 -16 -92 -28
-92 -10 0 -10 12 -2 50 9 47 19 60 30 42z m1273 -882 c36 -16 48 -28 68 -72
40 -88 58 -261 34 -325 -15 -41 -59 -83 -86 -83 -40 0 -81 28 -123 83 -56 73
-59 76 -137 107 -87 35 -194 107 -211 142 -8 18 -9 34 -2 52 21 57 243 132
359 121 30 -3 74 -14 98 -25z"/>
<path d="M3204 2376 c-46 -20 -103 -93 -120 -154 -50 -171 83 -275 198 -155
49 51 69 96 75 163 7 69 -15 124 -58 145 -34 18 -55 18 -95 1z m68 -16 c31
-15 68 -73 68 -109 0 -16 -13 -58 -29 -94 -34 -76 -80 -117 -133 -117 -51 0
-71 27 -76 105 -5 69 14 122 61 174 17 18 64 47 84 51 1 0 12 -5 25 -10z"/>
<path d="M2835 2290 c-28 -11 -72 -60 -84 -93 -18 -47 -13 -143 9 -186 26 -51
77 -77 124 -61 65 21 107 91 107 180 1 118 -74 195 -156 160z m94 -44 c48 -51
35 -204 -21 -251 -36 -30 -67 -32 -101 -5 -37 29 -49 74 -38 142 13 75 36 117
73 132 37 16 59 11 87 -18z"/>
<path d="M3471 2133 c-99 -36 -176 -153 -151 -229 40 -120 273 -59 334 88 23
54 20 84 -12 119 -23 26 -37 32 -78 35 -29 2 -67 -3 -93 -13z m156 -29 c21
-21 25 -32 20 -65 -8 -58 -49 -114 -109 -148 -72 -41 -119 -48 -166 -23 -35
18 -37 21 -37 70 1 66 37 113 124 159 79 42 131 44 168 7z"/>
<path d="M3425 1731 c-82 -37 -132 -127 -106 -189 34 -82 190 -84 274 -4 73
69 75 162 6 198 -39 19 -126 17 -174 -5z m178 -32 c9 -12 17 -38 17 -58 0 -80
-74 -141 -171 -141 -107 0 -152 65 -98 142 55 77 207 112 252 57z"/>
</g>
</svg>
