<?xml version="1.0" standalone="no"?>
<!DOCTYPE svg PUBLIC "-//W3C//DTD SVG 20010904//EN"
 "http://www.w3.org/TR/2001/REC-SVG-20010904/DTD/svg10.dtd">
<svg version="1.0" xmlns="http://www.w3.org/2000/svg"
 width="500.000000pt" height="500.000000pt" viewBox="0 0 500.000000 500.000000"
 preserveAspectRatio="xMidYMid meet">

<g transform="translate(0.000000,500.000000) scale(0.100000,-0.100000)"
fill="#000000" stroke="none">
<path d="M2651 4953 c-42 -83 -86 -263 -141 -568 -18 -99 -36 -184 -40 -188
-4 -5 -11 13 -15 40 -10 71 -89 374 -131 504 -40 126 -88 239 -101 239 -5 0
-19 -7 -32 -16 -18 -13 -21 -22 -16 -43 3 -14 10 -264 14 -554 7 -474 10 -530
25 -545 13 -13 20 -14 34 -6 20 13 19 -30 8 518 -6 273 -6 397 1 393 13 -8 39
-103 92 -332 36 -155 49 -230 66 -367 5 -35 12 -51 27 -59 17 -9 24 -8 34 5
16 22 53 176 113 471 27 132 53 250 58 262 4 12 8 -177 7 -435 0 -251 3 -467
8 -479 8 -26 30 -30 47 -10 7 10 13 193 18 597 6 561 6 583 -12 596 -30 22
-43 17 -64 -23z"/>
<path d="M2923 4940 c-17 -7 -23 -18 -23 -39 0 -25 4 -30 28 -33 27 -3 27 -3
27 -83 0 -44 -6 -163 -13 -264 -6 -102 -12 -244 -12 -316 0 -73 -3 -166 -6
-208 l-7 -76 -36 -3 c-30 -3 -36 -7 -39 -29 -2 -19 4 -31 21 -42 30 -19 141
-40 167 -32 35 11 18 85 -20 85 -10 0 -21 3 -23 8 -3 4 -1 97 4 207 4 110 13
316 19 457 6 142 13 265 16 273 5 11 17 15 41 13 45 -4 62 28 34 64 -16 18
-30 23 -87 25 -38 2 -79 -2 -91 -7z"/>
<path d="M1726 4882 c-72 -17 -96 -124 -78 -345 22 -277 87 -597 141 -705 48
-94 93 -120 151 -86 86 52 113 225 86 554 -26 311 -51 423 -110 509 -43 61
-117 90 -190 73z m115 -82 c37 -20 58 -84 84 -261 42 -284 47 -346 43 -504 -3
-128 -7 -157 -24 -190 -30 -57 -61 -55 -92 6 -31 63 -76 250 -96 394 -58 442
-59 500 -11 548 19 19 67 22 96 7z"/>
<path d="M3327 4833 c-4 -3 -7 -17 -7 -29 0 -28 31 -50 81 -59 62 -11 65 -17
40 -77 -201 -468 -300 -756 -301 -870 0 -28 5 -38 20 -43 11 -3 24 -4 29 0 5
3 30 -4 54 -16 51 -25 77 -20 77 14 0 30 -12 40 -67 56 -24 6 -43 16 -43 21 0
5 34 105 76 222 42 117 93 265 114 328 21 63 58 158 83 210 63 133 66 153 29
188 -42 39 -165 76 -185 55z"/>
<path d="M1352 4690 c-139 -63 -191 -105 -164 -132 10 -10 23 -9 63 5 28 10
53 17 55 15 6 -6 201 -798 214 -870 14 -77 34 -103 56 -73 8 10 14 27 14 37 0
31 -67 326 -136 594 -35 138 -66 276 -70 306 l-6 55 30 6 c40 8 74 42 70 70
-5 33 -33 30 -126 -13z"/>
<path d="M3787 4623 c-8 -15 -33 -88 -56 -161 -40 -128 -147 -422 -246 -676
-47 -120 -51 -160 -20 -173 22 -8 40 11 55 59 14 45 61 170 66 177 2 2 29 -18
60 -45 l56 -48 -6 -66 c-4 -36 -11 -91 -18 -122 -9 -49 -8 -61 6 -83 20 -31
44 -32 51 -2 3 12 14 96 25 187 10 91 28 217 39 280 11 63 27 180 36 259 9 80
24 193 34 253 20 122 16 140 -36 171 l-32 18 -14 -28z m-11 -379 c-34 -239
-68 -424 -77 -424 -4 0 -28 19 -53 43 l-47 42 34 100 c76 220 155 421 162 413
3 -3 -6 -81 -19 -174z"/>
<path d="M979 4479 c-72 -77 -77 -250 -11 -374 15 -27 69 -94 120 -147 126
-133 162 -215 162 -375 0 -81 -19 -126 -59 -144 -25 -11 -31 -19 -29 -38 2
-13 11 -29 20 -35 14 -8 23 -5 47 18 51 49 72 115 73 225 2 182 -37 278 -172
421 -108 114 -132 159 -138 258 -5 86 8 126 48 142 31 13 42 38 28 64 -15 26
-57 19 -89 -15z"/>
<path d="M4116 4402 c-7 -15 -16 -47 -20 -71 -11 -70 -135 -506 -212 -746 -20
-60 -38 -133 -41 -161 -5 -48 -4 -52 25 -73 93 -66 180 -15 232 134 37 105 52
195 45 263 -6 59 -5 64 19 83 59 46 116 209 116 328 0 63 -5 86 -28 136 -54
114 -110 158 -136 107z m96 -227 c-14 -93 -55 -212 -83 -241 -21 -23 -49 -31
-61 -18 -12 11 91 354 115 382 9 12 14 9 26 -19 11 -27 11 -48 3 -104z m-143
-470 c1 -73 -24 -188 -52 -242 -27 -51 -85 -81 -102 -53 -4 6 9 61 28 123 20
62 45 146 57 187 12 41 27 84 33 95 10 19 11 18 23 -10 7 -16 13 -61 13 -100z"/>
<path d="M718 4279 c-40 -23 -39 -41 12 -200 161 -507 220 -788 181 -863 -19
-35 -57 -45 -81 -20 -29 30 -151 310 -234 539 -42 116 -84 220 -92 233 -25 39
-64 24 -64 -25 0 -27 270 -695 303 -751 39 -65 89 -112 121 -112 55 0 97 66
110 170 13 105 -25 341 -89 557 -20 65 -54 192 -76 283 -51 206 -53 211 -91
189z"/>
<path d="M4482 4015 c-12 -19 -33 -74 -47 -123 -37 -123 -46 -147 -160 -437
-126 -320 -132 -337 -117 -370 7 -14 22 -30 34 -36 13 -5 39 -32 58 -60 59
-83 74 -95 86 -64 11 27 -6 64 -51 115 -37 42 -45 58 -45 90 0 38 81 263 135
375 13 28 42 102 64 166 22 64 55 149 72 190 17 41 36 86 42 101 15 36 -1 82
-29 86 -16 2 -27 -7 -42 -33z"/>
<path d="M205 3891 c-39 -16 -95 -86 -135 -166 -45 -91 -59 -146 -60 -224 0
-59 -1 -57 148 -363 163 -336 287 -477 383 -438 71 30 149 162 149 253 0 29
-3 57 -6 60 -16 16 -44 -18 -64 -78 -12 -36 -33 -80 -48 -96 -23 -28 -30 -31
-65 -26 -48 7 -91 45 -152 137 -49 74 -145 262 -145 284 0 8 -18 50 -40 92
-89 172 -100 247 -52 349 19 39 45 73 74 97 54 44 75 90 52 113 -9 8 -16 15
-17 14 -1 0 -11 -4 -22 -8z"/>
<path d="M4811 3644 c-11 -14 -29 -54 -41 -90 -12 -36 -63 -149 -113 -252 -98
-203 -206 -459 -214 -507 -4 -24 4 -44 37 -92 22 -34 55 -77 71 -95 29 -30 32
-31 44 -14 18 24 6 54 -46 123 -21 29 -39 58 -39 65 0 6 41 96 90 198 50 102
90 191 90 197 0 29 21 19 54 -27 35 -49 60 -63 69 -37 7 21 -12 70 -43 108
-16 21 -30 46 -29 56 0 10 28 74 63 142 l63 124 31 -55 c18 -31 32 -60 32 -66
0 -16 47 -45 60 -37 19 12 10 43 -37 135 -45 89 -91 150 -111 150 -6 0 -20
-11 -31 -26z"/>
<path d="M1827 3427 c-9 -18 -19 -53 -23 -78 -4 -24 -11 -49 -16 -55 -4 -6
-35 -14 -68 -18 -33 -4 -62 -11 -64 -15 -3 -5 -19 -11 -35 -14 -33 -7 -142
-79 -188 -126 -28 -27 3 -33 32 -7 15 14 31 26 36 26 4 0 14 6 21 13 19 18 78
45 113 52 17 4 39 11 51 17 11 5 36 8 55 6 27 -2 34 -7 33 -23 -2 -36 -115
-758 -119 -766 -5 -6 -24 -132 -80 -514 -9 -60 -24 -153 -35 -205 -11 -52 -31
-180 -45 -285 -15 -104 -35 -253 -46 -330 -10 -77 -23 -162 -29 -188 -5 -26
-10 -56 -9 -65 1 -24 26 69 43 163 9 44 18 91 21 105 4 14 17 84 30 155 13 72
31 162 39 200 9 39 20 99 26 135 6 36 19 103 30 150 10 47 33 166 50 265 17
99 41 234 55 300 14 66 47 248 75 403 27 156 52 288 55 293 3 5 12 45 20 90 8
45 17 84 19 86 5 5 54 -25 77 -48 80 -79 180 -262 234 -429 10 -30 28 -84 40
-120 38 -110 62 -181 94 -280 30 -94 49 -145 77 -207 8 -17 14 -34 14 -38 0
-4 6 -21 14 -38 8 -18 22 -48 30 -67 9 -19 20 -42 26 -50 5 -8 25 -42 44 -75
32 -57 147 -185 166 -185 5 0 12 -9 15 -21 4 -12 22 -38 40 -58 36 -40 61 -99
130 -306 26 -77 53 -153 60 -170 8 -16 30 -70 50 -120 20 -49 50 -115 67 -145
17 -30 40 -71 51 -90 67 -122 169 -218 247 -235 19 -4 40 -11 47 -17 15 -12
173 -6 173 7 0 5 -13 8 -29 7 -36 -4 -169 23 -202 40 -76 41 -145 108 -192
186 -83 141 -181 367 -232 537 -15 50 -33 104 -40 120 -20 45 -35 95 -29 95
14 0 160 -84 171 -98 8 -10 33 -51 58 -92 61 -104 92 -132 154 -138 66 -6 94
12 115 75 53 159 38 464 -29 611 -49 108 -91 134 -209 133 -163 0 -354 -96
-402 -200 -17 -37 -34 -53 -34 -33 0 5 -22 33 -50 63 -27 30 -50 57 -50 61 0
4 -15 31 -34 60 -18 29 -42 73 -54 98 -47 105 -112 270 -133 340 -83 276 -209
589 -286 709 -37 58 -134 157 -162 166 -14 4 -16 17 -13 75 6 94 -4 140 -27
140 -11 0 -25 -13 -34 -33z m29 -133 c-4 -15 -14 -24 -25 -24 -16 0 -18 5 -12
33 5 18 14 44 22 57 l14 25 3 -34 c2 -19 1 -44 -2 -57z m-23 -78 c3 -8 1 -44
-5 -81 -8 -47 -15 -65 -25 -63 -8 2 -14 6 -14 11 -1 17 14 133 18 140 7 12 20
8 26 -7z m1375 -1298 c38 -19 52 -34 75 -79 39 -77 58 -197 60 -369 2 -121 -1
-152 -16 -185 -26 -57 -55 -85 -91 -85 -40 0 -110 75 -153 163 -30 61 -36 67
-110 107 -85 47 -197 137 -232 186 -26 38 -28 110 -3 140 46 57 162 115 297
148 40 10 128 -3 173 -26z"/>
<path d="M3314 2701 c-154 -94 -203 -441 -72 -520 38 -24 78 -14 126 31 120
116 150 399 51 482 -36 31 -63 33 -105 7z m75 -27 c30 -22 71 -110 71 -154 0
-47 -43 -181 -74 -235 -31 -53 -70 -85 -103 -85 -59 0 -80 37 -90 160 -4 61
-1 87 16 138 34 99 77 160 131 184 22 10 23 10 49 -8z"/>
<path d="M2899 2568 c-21 -14 -45 -46 -64 -83 -26 -52 -30 -73 -33 -160 -3
-83 0 -109 17 -156 66 -175 209 -125 251 89 23 115 -2 236 -60 294 -44 44 -64
47 -111 16z m95 -37 c45 -50 59 -188 32 -304 -16 -67 -65 -127 -103 -127 -30
0 -68 41 -84 88 -29 88 12 310 64 347 30 21 70 19 91 -4z"/>
<path d="M3637 2356 c-68 -25 -130 -83 -168 -158 -51 -101 -51 -202 1 -258 24
-26 35 -30 80 -30 64 0 107 20 161 74 115 114 139 300 46 361 -35 22 -78 26
-120 11z m130 -50 c33 -38 37 -91 14 -166 -35 -112 -141 -210 -227 -210 -53 0
-101 36 -109 84 -8 43 17 139 49 185 27 39 100 103 144 127 39 21 102 12 129
-20z"/>
<path d="M3595 1770 c-17 -5 -49 -25 -72 -45 -117 -100 -127 -295 -18 -341 66
-27 132 -12 197 46 106 93 123 267 33 326 -31 20 -99 27 -140 14z m133 -52
c47 -51 51 -131 12 -208 -66 -129 -227 -151 -285 -40 -30 57 -13 119 52 190
68 76 177 104 221 58z"/>
</g>
</svg>
