<?xml version="1.0" standalone="no"?>
<!DOCTYPE svg PUBLIC "-//W3C//DTD SVG 20010904//EN"
 "http://www.w3.org/TR/2001/REC-SVG-20010904/DTD/svg10.dtd">
<svg version="1.0" xmlns="http://www.w3.org/2000/svg"
 width="500.000000pt" height="500.000000pt" viewBox="0 0 500.000000 500.000000"
 preserveAspectRatio="xMidYMid meet">
<metadata>
Created by potrace 1.16, written by Peter Selinger 2001-2019
</metadata>
<g transform="translate(0.000000,500.000000) scale(0.100000,-0.100000)"
fill="#000000" stroke="none">
<path d="M2261 4989 c-49 -20 -66 -72 -34 -105 15 -15 18 -49 24 -243 4 -124
10 -259 14 -298 6 -62 4 -73 -8 -73 -19 0 -31 -33 -22 -60 5 -16 15 -20 54
-20 56 0 74 15 69 57 -2 20 -9 29 -25 31 -21 3 -23 9 -23 60 0 31 -5 171 -12
309 -11 239 -11 254 6 266 12 9 17 23 14 47 -3 38 -18 45 -57 29z"/>
<path d="M2357 4993 c-4 -3 -7 -19 -7 -34 0 -22 6 -30 25 -35 19 -5 25 -13 25
-33 0 -104 24 -669 29 -679 6 -10 11 -9 25 1 18 13 18 25 7 283 -15 368 -15
425 4 418 17 -7 38 37 29 60 -8 20 -121 36 -137 19z"/>
<path d="M2556 4992 c-2 -4 -6 -179 -8 -389 -2 -306 0 -385 10 -395 11 -11 16
-10 28 6 11 15 14 57 14 183 0 138 2 163 15 163 13 0 15 -26 15 -174 0 -142 3
-176 15 -186 12 -10 18 -10 30 0 13 11 15 68 15 407 l0 394 -27 -3 -28 -3 -3
-177 c-2 -161 -4 -178 -20 -178 -15 0 -17 14 -14 157 2 87 0 168 -3 180 -5 22
-29 31 -39 15z"/>
<path d="M2132 4973 c-5 -10 -9 -108 -8 -218 1 -126 -1 -173 -5 -127 -4 40
-13 111 -20 157 -11 79 -14 85 -36 85 l-23 0 -1 -187 -1 -188 -19 160 c-28
252 -40 295 -69 260 -11 -13 -10 -42 3 -168 9 -84 21 -213 28 -287 7 -74 15
-139 19 -145 4 -5 11 -39 15 -75 9 -79 20 -110 39 -110 16 0 21 33 33 225 l7
120 8 -95 c19 -222 18 -220 38 -220 9 0 22 6 28 13 12 14 20 787 8 806 -11 17
-34 13 -44 -6z"/>
<path d="M2894 4948 c-4 -6 -11 -111 -16 -232 -4 -122 -12 -291 -17 -376 -12
-192 -11 -200 40 -201 22 -1 45 -2 52 -3 8 -1 12 13 12 39 0 37 -2 40 -29 43
l-29 4 7 176 c3 97 11 260 16 361 5 101 7 188 4 193 -8 12 -32 10 -40 -4z"/>
<path d="M3071 4906 c-46 -118 -66 -650 -30 -756 11 -33 40 -70 55 -70 11 0
54 50 54 63 0 7 7 24 15 40 22 42 35 163 42 372 4 128 2 208 -6 244 -22 101
-106 171 -130 107z m65 -81 c29 -28 7 -517 -27 -622 -36 -111 -49 70 -29 397
10 152 23 240 36 240 3 0 12 -7 20 -15z"/>
<path d="M3266 4683 c4 -103 8 -291 8 -418 1 -191 3 -230 15 -230 8 0 22 15
32 33 10 17 16 32 13 32 -4 0 -2 6 4 13 6 7 22 96 37 197 14 102 38 232 51
290 38 155 41 201 16 223 -24 22 -16 52 -72 -268 -23 -126 -42 -231 -44 -233
-2 -1 -6 106 -9 240 -5 254 -12 301 -41 306 -18 4 -18 -6 -10 -185z"/>
<path d="M1670 4825 c-13 -33 -13 -61 0 -103 5 -19 14 -109 20 -200 6 -92 18
-234 26 -316 7 -82 14 -150 14 -152 0 -2 16 -4 35 -4 19 0 35 5 35 10 0 6 7
10 15 10 8 0 19 9 25 21 9 16 8 26 -5 45 -16 24 -35 32 -35 14 0 -5 -6 -10
-14 -10 -16 0 -22 39 -31 200 -4 58 -9 113 -11 123 -4 12 0 17 14 17 11 0 23
7 26 16 10 25 7 64 -5 64 -5 0 -7 5 -4 10 3 6 -1 10 -9 10 -9 0 -16 -4 -16
-10 0 -5 -4 -10 -8 -10 -4 0 -9 37 -10 83 -2 45 -5 90 -8 100 -4 13 1 17 20
17 19 0 27 7 32 24 12 48 2 61 -49 64 -43 3 -48 1 -57 -23z"/>
<path d="M1453 4753 c-16 -6 -17 -79 -3 -171 6 -37 19 -148 30 -247 21 -191
44 -347 54 -363 14 -22 55 1 74 42 45 95 51 224 22 480 -22 191 -92 294 -177
259z m88 -114 c29 -56 52 -221 53 -379 1 -218 -16 -233 -38 -34 -10 88 -26
225 -35 307 -17 150 -13 171 20 106z"/>
<path d="M3516 4728 c-3 -13 -6 -37 -6 -55 0 -17 -4 -35 -10 -38 -5 -3 -10
-25 -10 -48 0 -23 -9 -116 -19 -207 -11 -91 -23 -220 -27 -287 -8 -139 -3
-151 66 -160 l40 -6 0 36 c0 30 -5 37 -30 49 -26 11 -30 18 -30 51 0 20 4 45
10 55 10 20 31 222 24 234 -3 4 0 8 5 8 6 0 11 -4 11 -10 0 -5 9 -10 20 -10
16 0 20 7 20 34 0 45 -9 66 -27 66 -13 0 -14 11 -9 68 4 37 10 81 13 99 5 29
7 31 20 17 29 -28 52 1 39 49 -8 33 -51 77 -73 77 -13 0 -23 -9 -27 -22z"/>
<path d="M1302 4684 c-11 -12 -11 -74 -3 -346 6 -182 11 -364 11 -404 0 -59 3
-73 17 -78 34 -13 45 21 40 122 -2 50 -1 92 4 92 4 0 14 3 22 6 11 4 16 -6 21
-43 12 -81 26 -123 41 -123 27 0 27 48 1 192 -27 154 -82 471 -91 528 -10 58
-16 70 -33 70 -9 -1 -23 -7 -30 -16z"/>
<path d="M3865 4623 c-8 -19 -31 -150 -44 -248 -5 -33 -20 -83 -35 -112 -60
-117 -84 -317 -51 -414 24 -68 38 -81 84 -81 23 1 41 -4 41 -10 0 -19 50 -78
66 -78 23 0 19 77 -5 85 -26 8 -34 46 -17 86 7 19 19 64 27 102 7 37 16 67 21
67 4 0 8 -4 8 -10 0 -23 29 -7 35 19 8 37 -11 69 -47 76 -15 4 -28 11 -28 16
0 5 -4 9 -10 9 -5 0 -10 -21 -10 -47 0 -46 -22 -158 -33 -169 -2 -3 -5 70 -6
162 l-2 166 39 62 c60 92 79 173 62 252 -12 52 -38 84 -69 84 -10 0 -22 -8
-26 -17z"/>
<path d="M1124 4563 c-4 -10 -10 -130 -14 -268 l-5 -250 -34 110 c-19 61 -52
144 -73 187 -21 42 -38 81 -38 87 0 20 -26 11 -40 -14 -10 -19 -10 -33 -1 -67
6 -24 25 -158 41 -298 17 -140 35 -264 40 -275 5 -11 12 -42 15 -69 8 -62 14
-76 31 -76 26 0 26 52 0 243 -39 288 -39 284 -5 187 16 -47 39 -124 51 -172
16 -70 24 -88 38 -88 10 0 21 7 24 16 3 9 6 109 7 222 l1 207 19 -100 c11 -55
28 -160 39 -234 10 -74 23 -138 29 -144 5 -5 17 -7 27 -3 19 7 19 14 -15 241
-11 77 -33 221 -47 320 -34 230 -40 255 -63 255 -11 0 -22 -8 -27 -17z"/>
<path d="M712 4255 c-24 -28 -24 -72 2 -181 14 -60 39 -188 56 -284 42 -244
51 -278 68 -285 24 -9 63 26 80 70 34 93 13 390 -40 554 -35 108 -123 175
-166 126z m73 -75 c-3 -5 -1 -10 4 -10 6 0 11 -6 11 -13 0 -7 9 -30 20 -52 42
-82 85 -406 62 -465 -8 -22 -11 -15 -23 53 -7 42 -16 77 -20 77 -4 0 -8 8 -8
18 0 9 -9 58 -21 107 -20 84 -28 124 -49 248 -7 42 -6 47 11 47 11 0 16 -4 13
-10z"/>
<path d="M4231 4228 c-17 -17 -55 -112 -65 -161 -2 -7 -6 -19 -9 -27 -15 -37
-48 -255 -54 -351 -6 -116 2 -156 42 -201 30 -35 53 -36 65 -2 13 33 15 30
-22 65 -33 31 -33 32 -32 119 0 49 5 95 11 102 6 7 21 67 33 133 23 131 55
251 69 260 5 3 17 -2 25 -11 45 -44 75 22 31 69 -31 33 -67 35 -94 5z"/>
<path d="M576 4115 c-4 -14 -4 -30 -2 -34 3 -5 23 -104 45 -222 22 -118 42
-227 46 -244 9 -44 -8 -19 -35 50 -13 33 -32 80 -43 105 -11 25 -25 57 -31 71
-6 14 -29 53 -51 87 -31 47 -46 62 -64 62 -24 0 -24 0 -18 -87 5 -84 57 -346
76 -388 5 -11 21 -73 36 -137 15 -65 31 -121 37 -124 18 -11 40 28 34 61 -13
79 -97 432 -106 447 -13 22 -14 46 -1 33 16 -17 191 -375 191 -391 0 -5 5 -16
10 -24 17 -27 39 18 39 80 0 57 -49 348 -93 555 -14 66 -26 121 -26 123 0 1
-9 2 -19 2 -12 0 -21 -9 -25 -25z"/>
<path d="M4425 4098 c-10 -26 -58 -195 -67 -233 -5 -22 -15 -49 -23 -61 -7
-11 -25 -56 -38 -100 -14 -43 -37 -110 -52 -148 -30 -81 -30 -131 0 -131 16 0
24 13 39 60 11 33 21 62 23 65 3 3 14 -6 25 -20 17 -21 19 -33 13 -80 -4 -30
-11 -59 -16 -64 -23 -25 18 -113 42 -89 5 5 16 59 23 119 16 120 59 419 81
557 13 80 13 91 -1 113 -18 26 -42 32 -49 12z"/>
<path d="M4556 3908 c-8 -29 -22 -91 -31 -138 -9 -47 -21 -94 -27 -106 -5 -11
-8 -24 -7 -30 1 -5 0 -16 -4 -24 -11 -28 -67 -327 -67 -358 0 -16 6 -35 14
-42 17 -13 25 11 45 139 13 83 30 126 31 75 0 -16 -4 -34 -10 -40 -5 -5 -12
-59 -16 -119 -6 -95 -4 -112 10 -124 33 -28 46 -7 46 76 0 43 7 139 16 213 12
109 20 142 39 171 54 83 71 236 34 314 -30 63 -54 61 -73 -7z"/>
<path d="M276 3829 c-13 -16 -17 -33 -14 -63 11 -103 61 -443 69 -461 5 -11
15 -78 23 -148 7 -71 16 -130 18 -133 3 -2 13 -2 22 2 12 5 16 20 16 68 -1 33
-5 81 -10 106 -5 27 -5 46 1 48 5 2 15 10 23 17 11 11 16 4 31 -48 23 -76 27
-82 54 -65 28 17 27 61 -3 118 -13 25 -32 72 -41 105 -10 33 -40 129 -67 213
-26 84 -48 160 -48 168 0 8 -4 14 -8 14 -5 0 -13 17 -18 37 -11 44 -24 50 -48
22z"/>
<path d="M4742 3738 c-6 -13 -18 -59 -27 -103 -9 -44 -30 -120 -46 -169 -39
-118 -89 -340 -89 -390 0 -33 7 -48 36 -79 22 -23 42 -36 51 -33 8 3 17 6 19
6 16 0 -1 52 -26 80 -16 18 -30 39 -30 45 0 15 28 115 40 140 5 11 14 40 21
65 20 78 17 75 40 54 17 -16 22 -16 29 -4 6 8 10 20 10 27 0 19 -20 67 -32 74
-7 4 -3 35 12 90 24 94 27 99 37 73 4 -10 13 -25 20 -32 11 -11 16 -11 28 2
17 16 21 66 5 66 -5 0 -10 5 -10 11 0 18 -54 99 -66 99 -6 0 -16 -10 -22 -22z"/>
<path d="M85 3711 c-6 -19 62 -301 75 -311 19 -14 18 -55 -2 -83 l-21 -29 -23
78 c-13 44 -34 119 -46 167 -20 76 -26 87 -43 85 -27 -4 -31 -39 -11 -108 66
-230 138 -465 144 -474 5 -6 17 -33 27 -61 29 -83 47 -115 61 -115 19 0 18 50
-2 119 -38 130 -67 217 -75 225 -15 16 -10 46 10 67 18 20 19 18 56 -118 67
-247 71 -256 101 -215 17 21 18 62 2 62 -6 0 -9 3 -5 6 3 3 1 18 -4 33 -6 14
-16 49 -24 76 -7 28 -33 120 -58 205 -24 85 -50 178 -57 205 -7 28 -16 55 -21
60 -4 6 -12 30 -19 55 -23 87 -50 116 -65 71z"/>
<path d="M4945 3640 c-3 -5 -19 -58 -34 -117 -53 -201 -72 -267 -81 -278 -12
-16 -50 -175 -50 -212 0 -43 24 -44 40 0 7 17 12 35 11 40 0 4 3 7 9 7 6 0 10
6 10 14 0 11 88 304 143 473 7 24 7 40 -1 58 -12 25 -36 33 -47 15z"/>
<path d="M1248 3489 c-3 -8 -16 -13 -30 -12 -15 2 -28 -4 -32 -12 -3 -8 -12
-15 -19 -15 -8 0 -20 -7 -27 -15 -7 -8 -21 -15 -31 -15 -11 0 -19 -5 -19 -12
0 -6 -13 -32 -29 -57 -31 -48 -61 -147 -61 -200 0 -23 -4 -29 -15 -25 -8 4
-15 11 -15 18 0 6 -8 12 -17 13 -105 8 -143 8 -143 -1 0 -5 -3 -7 -6 -3 -4 3
-15 -4 -25 -16 -11 -13 -18 -17 -19 -9 0 10 -3 10 -15 -2 -8 -8 -15 -18 -15
-23 0 -4 -10 -19 -23 -33 -24 -27 -87 -157 -87 -181 0 -8 -5 -20 -12 -27 -6
-6 -12 -22 -13 -34 -1 -13 -7 -66 -13 -118 -11 -91 -11 -209 1 -240 3 -8 11
-37 18 -65 6 -27 19 -63 27 -80 8 -16 11 -27 7 -23 -7 7 -35 -14 -35 -27 0 -3
-11 -21 -24 -38 -66 -89 -88 -180 -90 -382 -2 -117 1 -146 16 -175 9 -19 20
-52 23 -72 3 -21 9 -38 14 -38 4 0 24 -26 45 -58 20 -32 57 -71 81 -87 25 -17
45 -32 45 -35 0 -3 11 -6 24 -6 14 -1 38 -9 55 -17 22 -11 31 -12 31 -4 0 7 5
6 11 -3 8 -12 12 -12 16 -2 4 10 8 10 19 1 12 -10 18 -8 29 7 10 14 14 15 15
5 0 -11 6 -8 20 7 12 12 23 22 25 22 3 0 5 -19 6 -42 0 -24 1 -59 1 -78 1 -19
5 -38 10 -41 5 -3 11 -23 14 -45 3 -21 11 -50 17 -64 21 -44 140 -156 180
-169 20 -7 37 -16 37 -20 0 -4 14 -6 30 -3 20 3 30 0 30 -8 0 -10 3 -10 15 0
12 10 15 10 15 -1 1 -9 4 -8 11 4 9 15 13 16 26 6 12 -10 16 -10 23 0 6 11 9
11 12 0 4 -10 11 -8 26 9 12 14 26 21 33 16 8 -4 9 -3 5 4 -4 7 -1 12 8 12 18
0 49 28 59 53 4 10 12 14 22 11 11 -4 15 0 15 16 0 12 8 24 18 27 9 2 24 19
33 36 9 18 22 31 28 29 6 -1 11 7 11 18 0 11 7 20 15 20 8 0 15 7 15 17 0 9 3
14 6 10 8 -8 34 18 34 33 0 6 5 8 10 5 6 -3 18 7 28 24 9 16 27 33 39 36 13 3
23 12 23 20 0 8 5 15 11 15 5 0 7 -6 3 -12 -5 -7 7 -1 26 15 19 15 40 31 46
36 6 5 20 12 32 15 12 4 20 12 17 17 -4 5 5 9 19 9 18 0 26 5 26 18 0 14 2 15
10 2 6 -9 10 -10 10 -3 0 7 16 15 35 19 19 3 33 10 30 14 -3 5 4 11 15 15 11
4 18 10 15 14 -4 8 33 48 41 44 11 -7 24 -2 19 7 -3 6 1 13 9 16 9 3 16 10 16
15 0 5 16 33 36 63 60 90 86 184 84 301 -1 113 -4 142 -15 168 -4 10 -5 21 -2
24 4 3 -3 17 -13 31 -11 13 -20 29 -20 33 0 15 -55 86 -88 114 -30 25 -43 55
-23 55 5 0 14 14 21 30 7 17 17 30 23 30 6 0 8 3 5 6 -4 3 2 24 12 47 10 23
23 71 29 107 14 89 22 248 12 255 -9 5 -41 96 -41 115 0 6 -9 20 -20 32 -11
12 -20 28 -20 35 0 8 -4 11 -10 8 -5 -3 -10 3 -10 14 0 12 -4 21 -9 21 -4 0
-31 23 -59 50 -28 28 -56 50 -61 50 -6 0 -11 5 -11 12 0 6 -3 9 -6 5 -9 -9
-61 20 -73 40 -6 10 -11 12 -11 6 0 -16 -40 -18 -40 -3 0 13 -32 9 -42 -5 -5
-6 -8 -4 -8 5 0 13 -1 13 -10 0 -6 -10 -10 -11 -10 -2 0 6 -4 12 -10 12 -5 0
-10 -7 -10 -16 0 -10 -6 -14 -15 -10 -20 7 -45 -3 -45 -19 0 -7 -6 -18 -14
-24 -11 -9 -17 -4 -31 26 -10 21 -28 52 -41 70 -13 17 -24 39 -24 48 0 9 -4
14 -8 11 -5 -3 -30 14 -55 38 -26 23 -49 41 -51 39 -2 -2 -24 8 -49 22 -25 14
-53 25 -61 25 -9 0 -16 4 -16 9 0 5 -13 8 -29 6 -22 -3 -31 1 -34 13 -4 16 -5
15 -6 0 0 -10 -5 -18 -11 -18 -5 0 -10 8 -11 18 0 15 -1 14 -8 -3 -7 -18 -8
-18 -18 -1 -8 14 -12 15 -15 5z m167 -209 c144 -69 212 -197 203 -384 -5 -105
-26 -161 -81 -218 -58 -60 -144 -64 -217 -10 -80 59 -137 164 -181 336 -64
249 64 377 276 276z m515 -232 c88 -46 122 -82 163 -168 55 -114 48 -272 -16
-367 -55 -82 -128 -101 -192 -51 -91 71 -163 304 -145 467 15 136 81 178 190
119z m-986 -74 c30 -19 90 -102 128 -179 86 -169 92 -376 15 -477 -50 -65 -79
-81 -140 -82 -46 0 -61 5 -103 35 -101 72 -146 177 -145 343 0 173 55 331 128
373 39 23 69 19 117 -13z m672 -508 c59 -16 89 -33 164 -97 80 -67 126 -94
207 -120 92 -29 135 -64 172 -143 62 -129 39 -292 -56 -397 -38 -42 -132 -109
-153 -109 -6 0 -55 -27 -108 -60 -98 -60 -198 -150 -288 -257 -144 -173 -237
-219 -334 -167 -61 33 -98 86 -124 176 -21 73 -20 109 4 227 20 98 24 186 20
386 -2 88 2 126 19 190 52 188 176 330 323 369 68 19 91 19 154 2z m-852 -316
c76 -29 186 -170 221 -284 57 -187 7 -313 -133 -339 -45 -9 -130 30 -169 78
-44 53 -75 172 -76 295 -1 122 20 198 66 234 35 28 52 31 91 16z"/>
<path d="M3314 2491 c-8 -7 -40 -17 -111 -36 -13 -4 -23 -11 -23 -16 0 -5 -6
-9 -14 -9 -7 0 -16 -9 -19 -20 -3 -13 -10 -18 -21 -14 -11 4 -16 1 -16 -11 0
-9 -16 -33 -35 -53 -38 -41 -115 -148 -115 -161 0 -5 -7 -14 -15 -21 -8 -7
-15 -21 -15 -32 0 -10 -7 -21 -15 -24 -8 -4 -15 -14 -15 -23 0 -20 -48 -213
-55 -219 -3 -3 -5 3 -5 13 0 17 -1 17 -21 -1 -17 -16 -22 -16 -29 -4 -6 9 -10
10 -10 4 0 -18 -32 -26 -42 -12 -6 10 -8 8 -8 -4 0 -10 -5 -18 -10 -18 -6 0
-24 -16 -41 -35 -17 -19 -35 -32 -40 -29 -5 3 -9 -2 -9 -10 0 -9 -4 -16 -10
-16 -5 0 -10 -5 -10 -12 0 -6 -11 -25 -24 -42 -13 -17 -36 -55 -51 -83 -15
-29 -31 -53 -37 -53 -5 0 -7 -4 -4 -9 8 -12 -14 -72 -24 -66 -10 6 -23 -42
-15 -56 4 -5 -1 -24 -10 -42 -25 -50 -21 -239 7 -337 12 -41 28 -81 35 -88 7
-7 13 -17 13 -22 0 -11 80 -104 80 -93 0 4 7 0 15 -11 7 -10 18 -15 24 -11 16
9 14 -11 -5 -53 -9 -21 -20 -46 -25 -57 -41 -94 -47 -131 -44 -245 3 -124 21
-194 68 -266 36 -55 103 -125 119 -123 26 3 39 -1 33 -11 -3 -5 -2 -10 4 -10
5 0 12 6 14 13 4 9 6 9 6 -1 1 -7 6 -10 12 -6 6 3 15 0 20 -7 8 -12 10 -12 18
0 8 13 12 13 26 1 13 -11 18 -11 25 -1 5 8 16 11 30 6 15 -5 25 -2 31 6 7 12
9 11 9 0 0 -11 4 -9 15 5 14 19 14 19 15 -1 1 -11 4 -14 7 -7 2 6 11 12 19 12
8 0 14 4 14 9 0 12 39 21 46 10 8 -14 72 -11 77 4 4 9 8 9 15 -2 7 -9 19 -11
36 -7 15 4 26 2 26 -4 0 -5 14 -10 30 -10 17 0 30 -5 30 -12 0 -9 4 -8 10 2 8
12 10 12 10 1 0 -10 9 -12 35 -7 26 5 39 2 53 -12 10 -10 33 -24 50 -31 28
-12 37 -12 59 0 21 11 27 11 30 2 6 -17 30 -17 36 0 4 9 6 9 6 0 1 -17 28 -16
38 1 9 15 81 41 103 37 8 -2 12 1 7 5 -9 9 42 64 60 64 7 0 13 5 13 11 0 6 11
25 24 42 31 42 106 195 106 218 0 10 4 20 9 23 8 6 9 269 1 296 -3 9 1 15 10
15 8 0 17 2 20 6 3 3 23 16 45 29 49 30 60 39 87 67 12 12 26 19 32 16 6 -3 8
-3 4 2 -9 9 10 47 20 41 4 -2 21 27 37 65 17 38 36 69 43 69 6 0 12 11 12 24
0 13 9 60 20 105 22 86 21 205 -1 319 -10 52 -68 226 -69 207 0 -5 -10 5 -21
23 -12 17 -25 32 -29 32 -5 0 -12 9 -15 21 -4 11 -12 18 -18 16 -6 -2 -19 6
-29 17 -10 12 -17 16 -18 9 0 -7 -9 -13 -20 -13 -18 0 -19 5 -14 78 4 44 1
111 -6 157 -7 44 -13 92 -13 107 0 15 -3 25 -7 23 -4 -2 -13 15 -19 38 -24 79
-123 233 -142 221 -5 -3 -9 0 -9 6 0 16 -22 35 -42 36 -50 2 -58 5 -58 22 0
13 -2 14 -9 3 -7 -11 -9 -11 -14 0 -4 10 -6 10 -6 -2 -1 -19 -41 -32 -65 -23
-9 3 -16 2 -16 -4 0 -5 -10 -12 -22 -15 -12 -4 -19 -9 -16 -13 4 -3 2 -12 -5
-20 -27 -30 -37 -44 -56 -75 -18 -29 -21 -31 -27 -13 -32 91 -86 164 -123 164
-9 0 -26 7 -37 15 -12 7 -25 11 -30 6z m46 -208 c39 -50 53 -128 46 -258 -11
-201 -63 -363 -145 -448 -46 -50 -80 -67 -130 -67 -103 0 -171 142 -158 333 6
103 32 173 106 284 108 163 224 228 281 156z m441 -54 c77 -88 125 -241 116
-369 -15 -207 -135 -386 -256 -381 -70 2 -120 59 -151 174 -19 71 -7 248 25
371 65 248 163 323 266 205z m-967 -554 c22 -23 52 -93 60 -145 4 -25 7 -97 7
-160 -1 -170 -43 -306 -111 -364 -41 -34 -71 -41 -114 -26 -102 33 -157 223
-112 385 42 148 165 325 226 325 16 0 36 -7 44 -15z m1235 -84 c43 -43 84
-160 95 -268 21 -195 -93 -402 -235 -428 -33 -6 -40 -3 -71 28 -58 58 -71 150
-43 302 46 255 177 443 254 366z m-627 -209 c125 -42 202 -150 237 -337 28
-145 43 -191 99 -305 l47 -95 0 -110 c-1 -103 -3 -114 -33 -176 -52 -108 -139
-179 -219 -179 -38 0 -123 19 -138 31 -5 4 -49 17 -98 28 -99 24 -204 29 -292
13 -161 -30 -178 -31 -226 -21 -117 25 -186 197 -144 358 23 90 44 127 128
228 84 101 95 118 171 268 87 172 182 264 311 301 58 17 95 16 157 -4z"/>
</g>
</svg>
