<?xml version="1.0" standalone="no"?>
<!DOCTYPE svg PUBLIC "-//W3C//DTD SVG 20010904//EN"
 "http://www.w3.org/TR/2001/REC-SVG-20010904/DTD/svg10.dtd">
<svg version="1.0" xmlns="http://www.w3.org/2000/svg"
 width="500.000000pt" height="500.000000pt" viewBox="0 0 500.000000 500.000000"
 preserveAspectRatio="xMidYMid meet">

<g transform="translate(0.000000,500.000000) scale(0.100000,-0.100000)"
fill="#000000" stroke="none">
<path d="M2273 4480 c-25 -10 -32 -40 -10 -40 11 0 15 -31 20 -127 4 -71 10
-165 13 -210 6 -73 5 -83 -10 -83 -18 0 -22 -25 -5 -35 6 -4 26 -4 45 -1 25 5
34 12 34 26 0 11 -7 20 -15 20 -8 0 -15 5 -15 11 0 6 -7 96 -15 202 l-16 191
22 17 c39 29 4 50 -48 29z"/>
<path d="M2377 4484 c-10 -11 2 -24 23 -24 23 0 27 -20 35 -195 8 -200 16
-275 28 -268 10 6 6 143 -9 360 -7 91 -7 91 17 95 13 1 24 10 24 18 0 11 -14
16 -55 18 -31 2 -59 0 -63 -4z"/>
<path d="M2567 4483 c-9 -8 -9 -456 -1 -477 16 -41 24 -6 24 104 0 66 4 120 9
120 37 0 41 -11 41 -114 0 -88 10 -141 23 -126 2 3 7 117 10 253 5 227 4 248
-11 245 -15 -3 -17 -18 -13 -121 l3 -117 -31 0 -31 0 0 120 c0 110 -5 132 -23
113z"/>
<path d="M2169 4293 l-1 -188 -18 110 c-22 142 -38 197 -53 192 -9 -3 -11 -38
-10 -123 2 -65 -1 -137 -5 -159 -6 -35 -10 -21 -30 110 -32 205 -32 207 -45
202 -7 -2 -11 -13 -10 -23 11 -86 55 -361 63 -399 28 -126 43 -92 50 115 l5
165 14 -75 c7 -41 18 -115 25 -164 18 -142 33 -120 40 61 10 256 7 363 -10
363 -12 0 -14 -32 -15 -187z"/>
<path d="M2886 4454 c-3 -9 -6 -34 -6 -57 0 -23 -7 -129 -16 -235 -9 -106 -15
-194 -13 -196 2 -2 25 -7 52 -10 39 -6 47 -5 47 9 0 9 -12 18 -31 22 -17 3
-33 12 -36 20 -3 8 -1 69 6 136 20 221 24 327 13 327 -5 0 -13 -7 -16 -16z"/>
<path d="M3056 4441 c-22 -34 -38 -145 -42 -286 -5 -142 -3 -164 13 -195 10
-20 27 -36 39 -38 48 -7 77 70 95 254 14 142 2 211 -42 249 -31 26 -54 32 -63
16z m58 -47 c9 -8 19 -26 22 -39 9 -38 -14 -296 -32 -348 -17 -51 -40 -70 -55
-46 -12 19 -11 223 1 326 13 115 29 142 64 107z"/>
<path d="M3236 4402 c-3 -5 -1 -56 5 -113 5 -57 9 -169 8 -249 -2 -177 -3
-170 21 -142 10 13 30 73 45 140 15 64 40 155 56 201 29 82 37 141 20 141 -5
0 -11 -8 -13 -17 -3 -10 -27 -99 -54 -198 l-49 -180 -5 202 c-3 131 -9 206
-16 213 -7 7 -14 8 -18 2z"/>
<path d="M1743 4384 c-10 -28 41 -470 57 -487 12 -14 75 8 78 27 3 16 -1 18
-31 12 l-34 -6 -7 77 c-3 43 -9 96 -12 118 -5 34 -2 41 17 50 28 13 26 29 -4
33 -21 3 -25 10 -31 55 -10 89 -9 97 18 97 29 0 44 19 25 31 -23 15 -69 10
-76 -7z"/>
<path d="M1537 4328 c-15 -12 -15 -23 8 -148 13 -74 31 -180 40 -234 8 -55 17
-101 19 -103 2 -2 15 -1 29 2 38 10 67 76 67 151 -1 173 -43 304 -106 330 -40
17 -36 17 -57 2z m76 -49 c51 -69 77 -332 38 -380 l-19 -24 -7 40 c-4 22 -17
99 -30 170 -39 215 -41 228 -20 223 10 -1 27 -15 38 -29z"/>
<path d="M3470 4304 c-6 -14 -10 -34 -10 -44 0 -11 -11 -88 -24 -172 -43 -270
-43 -246 -1 -264 20 -8 40 -12 45 -9 18 11 10 26 -20 36 -35 13 -34 5 -11 139
l18 105 27 -3 c34 -4 32 18 -3 33 -15 7 -20 16 -17 30 3 11 8 44 12 73 5 44
10 52 23 46 39 -16 51 -16 51 0 0 15 -54 56 -73 56 -4 0 -12 -12 -17 -26z"/>
<path d="M1385 4281 c-3 -5 -1 -60 5 -123 5 -62 10 -175 10 -250 0 -114 3
-138 15 -138 11 0 15 16 17 68 3 65 4 67 30 70 24 3 28 -1 41 -44 14 -48 37
-71 37 -37 0 10 -9 50 -20 88 -11 39 -36 133 -56 210 -19 77 -37 146 -40 153
-4 14 -30 16 -39 3z m66 -217 c16 -64 26 -121 23 -125 -8 -14 -44 -11 -49 4
-6 19 -13 248 -7 243 2 -3 17 -58 33 -122z"/>
<path d="M3800 4246 c-6 -8 -18 -54 -27 -102 -10 -58 -23 -98 -38 -118 -100
-135 -91 -316 16 -316 21 0 40 -9 55 -25 21 -23 54 -34 54 -19 0 3 -14 19 -31
35 -28 26 -29 30 -15 51 8 13 22 46 31 74 15 45 19 50 41 46 37 -7 30 22 -9
36 -45 16 -46 16 -45 -15 0 -35 -25 -106 -39 -110 -13 -5 -28 175 -18 209 4
13 22 39 41 58 36 38 64 96 64 133 0 28 -35 77 -55 77 -7 0 -18 -7 -25 -14z
m48 -65 c2 -23 -5 -45 -24 -72 -15 -21 -30 -39 -34 -39 -8 0 15 124 26 142 11
18 29 1 32 -31z m-84 -398 c7 -41 7 -43 -18 -43 -60 0 -76 104 -29 200 l27 55
6 -85 c4 -47 10 -104 14 -127z"/>
<path d="M1227 4204 c-4 -4 -7 -91 -7 -193 l-1 -186 -62 120 c-35 66 -71 132
-81 148 -23 34 -50 37 -43 5 2 -13 19 -95 36 -183 53 -269 56 -280 72 -280 18
0 18 -3 -25 204 -20 96 -35 176 -33 177 4 4 95 -185 121 -248 28 -71 35 -45
38 140 l3 177 39 -160 c21 -88 42 -173 45 -189 4 -16 13 -32 20 -34 17 -6 13
23 -23 188 -66 301 -77 336 -99 314z"/>
<path d="M843 4010 c-30 -12 -29 -22 11 -153 19 -62 47 -157 63 -212 31 -111
48 -124 86 -72 57 75 3 371 -76 421 -33 21 -59 26 -84 16z m66 -39 c39 -39 72
-130 92 -250 10 -64 -1 -131 -22 -131 -5 0 -9 2 -9 4 0 2 -25 83 -55 181 -30
97 -55 185 -55 196 0 25 25 24 49 0z"/>
<path d="M4135 3984 c-25 -25 -42 -64 -70 -161 -32 -113 -46 -196 -38 -234 6
-32 50 -82 67 -76 18 6 19 37 1 37 -9 0 -23 16 -31 36 -14 34 -13 43 10 133
31 120 61 203 86 233 16 20 22 21 39 11 27 -17 31 -16 31 6 0 33 -66 43 -95
15z"/>
<path d="M710 3921 c0 -5 9 -37 19 -72 34 -110 83 -301 78 -305 -2 -2 -38 49
-80 114 -107 166 -167 218 -167 146 0 -30 124 -402 139 -417 28 -28 19 17 -38
184 -33 100 -59 184 -57 186 6 6 139 -168 182 -238 38 -61 50 -70 60 -44 13
33 -101 455 -122 455 -8 0 -14 -4 -14 -9z"/>
<path d="M4296 3832 c-21 -48 -66 -141 -101 -207 -34 -66 -60 -126 -58 -132 9
-24 24 -13 44 32 22 49 37 55 63 26 14 -15 15 -26 7 -62 -14 -60 -13 -79 3
-79 9 0 17 16 21 43 4 23 25 121 46 217 22 96 42 187 45 202 5 19 1 29 -13 37
-18 9 -23 2 -57 -77z m-1 -152 c-21 -86 -30 -110 -42 -108 -38 7 -36 32 13
137 26 57 50 99 52 93 2 -6 -9 -61 -23 -122z"/>
<path d="M4452 3793 c-27 -70 -134 -434 -129 -439 10 -10 27 6 27 26 0 25 49
182 61 195 12 12 12 7 -6 -100 -17 -102 -19 -171 -6 -179 4 -3 11 28 15 68 11
127 32 218 54 235 56 45 74 151 33 195 -31 33 -36 32 -49 -1z m48 -49 c0 -44
-50 -137 -65 -122 -6 6 28 125 42 151 8 14 23 -4 23 -29z"/>
<path d="M422 3727 c-8 -9 -4 -39 13 -107 13 -52 36 -160 51 -240 14 -80 28
-147 30 -149 2 -3 9 0 15 6 8 8 7 27 -1 69 -11 52 -10 59 6 71 30 22 45 15 62
-27 17 -39 42 -54 42 -25 0 8 -30 77 -66 153 -37 75 -79 165 -95 200 -29 63
-38 72 -57 49z m93 -195 c25 -56 45 -106 45 -111 0 -4 -11 -13 -24 -19 -24
-11 -25 -10 -45 76 -25 111 -35 168 -28 161 4 -3 27 -51 52 -107z"/>
<path d="M4622 3668 c-5 -7 -14 -29 -20 -48 -5 -19 -27 -80 -49 -135 -22 -55
-50 -131 -63 -168 l-22 -69 28 -29 c15 -16 34 -29 41 -29 21 0 15 27 -12 48
l-25 20 36 93 c40 106 49 118 66 101 7 -7 16 -12 20 -12 15 0 8 27 -11 44 -19
17 -19 19 6 79 14 34 27 64 29 66 3 3 11 -5 20 -17 18 -27 34 -28 34 -4 0 18
-44 72 -59 72 -5 0 -13 -6 -19 -12z"/>
<path d="M290 3543 l49 -118 -21 -22 c-12 -13 -24 -23 -27 -23 -6 0 -50 94
-86 183 -15 36 -35 42 -35 11 0 -21 144 -338 182 -401 31 -51 48 -66 48 -42 0
7 -23 61 -52 121 l-52 109 22 22 c14 13 25 18 31 12 5 -6 30 -61 56 -122 42
-102 65 -132 65 -85 0 9 -44 118 -98 242 -67 155 -102 226 -114 228 -14 3 -8
-19 32 -115z"/>
<path d="M4785 3538 c-15 -40 -48 -120 -72 -177 -24 -57 -43 -114 -41 -127 2
-17 30 33 91 164 48 103 87 193 87 200 0 6 -8 12 -18 12 -14 0 -26 -19 -47
-72z"/>
<path d="M1303 3500 c-98 -21 -177 -87 -189 -158 -9 -60 -15 -64 -60 -49 -152
54 -310 -76 -343 -283 -6 -33 -8 -68 -7 -77 2 -10 7 -35 10 -57 4 -21 17 -58
29 -83 22 -44 22 -45 2 -56 -42 -23 -83 -74 -104 -132 -19 -49 -22 -74 -19
-140 9 -160 91 -265 241 -305 45 -12 151 -9 188 5 13 5 17 -4 23 -52 21 -176
224 -286 412 -222 62 21 116 55 206 129 86 71 208 140 328 184 126 46 180 77
234 137 57 64 80 130 74 213 -8 94 -49 159 -137 217 l-24 15 38 49 c20 27 41
61 47 75 46 120 17 242 -77 329 -104 96 -269 137 -370 92 -27 -12 -51 -17 -54
-12 -43 67 -106 118 -190 150 -82 33 -189 46 -258 31z m227 -130 c82 -39 127
-88 146 -159 23 -94 0 -164 -75 -216 -35 -25 -52 -30 -99 -29 -106 0 -189 63
-247 187 -60 127 -51 202 27 237 65 29 157 21 248 -20z m481 -148 c125 -58
177 -161 140 -273 -24 -73 -108 -124 -178 -109 -49 11 -79 35 -118 93 -76 115
-86 248 -22 300 29 24 115 18 178 -11z m-976 -31 c57 -26 130 -104 168 -180
55 -112 35 -217 -52 -272 -104 -67 -264 -10 -318 111 -18 40 -20 148 -4 207
21 77 93 150 151 152 8 0 33 -8 55 -18z m677 -340 c22 -5 74 -29 116 -54 79
-45 146 -71 217 -83 168 -27 233 -219 113 -331 -26 -25 -136 -83 -156 -83 -42
0 -254 -106 -318 -159 -203 -167 -286 -199 -391 -152 -102 47 -134 133 -97
261 12 38 17 99 18 195 1 131 3 144 28 196 36 73 108 143 183 179 98 47 177
55 287 31z m-787 -217 c88 -42 185 -173 185 -253 0 -138 -221 -179 -323 -60
-40 47 -57 97 -57 172 0 142 77 197 195 141z"/>
<path d="M4612 3133 c4 -36 33 -39 33 -3 0 16 -6 26 -18 28 -15 3 -18 -2 -15
-25z"/>
<path d="M3210 2851 c-98 -31 -228 -129 -291 -220 -20 -30 -45 -80 -55 -112
l-18 -57 -46 -4 c-71 -8 -139 -46 -211 -119 -91 -91 -132 -176 -137 -282 -4
-68 -1 -84 22 -132 28 -56 77 -102 134 -124 17 -8 32 -15 32 -18 0 -2 -14 -25
-32 -51 -78 -113 -66 -281 26 -359 77 -65 175 -81 341 -55 108 16 258 9 360
-18 179 -47 311 -21 423 84 70 65 107 144 107 226 0 36 -2 78 -5 94 -5 26 -2
30 35 41 112 33 199 105 250 207 32 64 35 79 35 152 -1 172 -92 295 -225 305
-6 1 -10 39 -10 94 0 84 -3 98 -33 159 -53 109 -146 178 -239 178 -70 0 -114
-15 -160 -55 -23 -19 -46 -35 -51 -35 -6 0 -19 16 -30 34 -37 63 -138 93 -222
67z m109 -112 c31 -29 41 -61 42 -133 1 -82 -8 -129 -41 -201 -47 -103 -125
-165 -210 -165 -98 0 -160 76 -160 195 0 91 99 225 214 290 72 41 121 45 155
14z m384 -12 c40 -17 97 -87 121 -147 64 -160 -65 -367 -223 -361 -158 6 -199
213 -85 426 44 80 115 112 187 82z m-846 -419 c26 -40 28 -51 28 -148 0 -95
-3 -110 -28 -163 -65 -132 -207 -144 -278 -23 -25 42 -29 60 -26 98 11 125
142 278 239 278 33 0 41 -5 65 -42z m1147 -35 c58 -58 86 -161 66 -244 -22
-91 -136 -189 -221 -189 -36 0 -85 24 -97 48 -47 90 10 276 113 371 55 51 98
55 139 14z m-543 -139 c38 -17 71 -42 92 -68 45 -54 52 -70 72 -146 14 -59 42
-127 56 -140 3 -3 21 -27 40 -54 31 -44 34 -54 34 -120 0 -65 -3 -76 -32 -115
-80 -109 -177 -134 -355 -91 -116 28 -235 35 -358 20 -123 -14 -206 -15 -241
-1 -59 22 -109 99 -109 168 0 12 11 46 23 75 19 42 42 69 108 124 47 39 100
92 119 118 90 122 112 146 169 183 52 35 108 59 186 77 42 10 139 -5 196 -30z"/>
</g>
</svg>
