<?xml version="1.0" standalone="no"?>
<!DOCTYPE svg PUBLIC "-//W3C//DTD SVG 20010904//EN"
 "http://www.w3.org/TR/2001/REC-SVG-20010904/DTD/svg10.dtd">
<svg version="1.0" xmlns="http://www.w3.org/2000/svg"
 width="500.000000pt" height="500.000000pt" viewBox="0 0 500.000000 500.000000"
 preserveAspectRatio="xMidYMid meet">
<metadata>
Created by potrace 1.16, written by Peter Selinger 2001-2019
</metadata>
<g transform="translate(0.000000,500.000000) scale(0.100000,-0.100000)"
fill="#000000" stroke="none">
<path d="M2055 4977 c-3 -12 -5 -78 -3 -147 2 -76 -2 -154 -11 -200 -15 -82
-10 -204 10 -242 15 -29 45 -58 60 -58 6 0 22 11 35 25 12 13 24 20 26 15 2
-4 15 -11 30 -15 20 -5 29 -2 37 13 15 28 4 52 -24 52 -22 0 -23 2 -17 87 4
65 9 90 24 105 26 26 24 58 -4 58 -65 -1 -67 -4 -63 -99 l5 -86 -15 45 c-9 25
-20 75 -27 113 -9 58 -9 73 6 110 23 58 32 178 16 217 -10 25 -18 30 -46 30
-27 0 -35 -5 -39 -23z"/>
<path d="M2373 4963 c-30 -45 -24 -178 10 -278 21 -57 28 -98 28 -148 0 -84
-7 -107 -32 -107 -12 0 -19 -7 -19 -19 0 -54 33 -67 63 -26 43 60 44 188 2
325 -35 113 -37 195 -5 205 24 8 26 37 4 59 -22 22 -31 20 -51 -11z"/>
<path d="M2530 4971 c-5 -11 -10 -39 -10 -63 0 -24 -10 -126 -21 -228 -36
-325 -35 -300 -12 -300 24 0 33 24 33 93 0 26 3 47 6 47 19 0 34 -34 34 -77 1
-62 29 -105 44 -66 11 28 -25 597 -38 605 -17 12 -24 10 -36 -11z"/>
<path d="M3034 4982 c-6 -4 -17 -130 -29 -331 -20 -357 -21 -344 44 -339 42 4
61 29 38 52 -8 9 -24 16 -34 16 -17 0 -17 7 -11 92 3 51 7 107 7 123 1 21 8
33 24 40 28 13 28 46 0 61 -13 6 -21 13 -18 15 2 3 5 51 6 107 1 56 5 99 10
96 5 -3 18 -2 29 1 22 7 27 44 8 63 -13 13 -57 16 -74 4z"/>
<path d="M2660 4966 c-12 -16 -37 -563 -26 -591 3 -8 12 -15 19 -15 19 0 27
51 27 175 0 94 1 101 23 110 32 14 35 53 4 60 -23 6 -24 9 -15 53 5 26 8 67 6
92 -2 43 -1 44 27 45 24 0 31 5 33 25 2 19 -5 29 -29 43 -37 21 -53 21 -69 3z"/>
<path d="M2787 4936 c-3 -7 -9 -139 -13 -293 l-7 -280 33 -16 c27 -14 34 -14
46 -2 22 22 17 51 -12 64 -27 12 -27 12 -21 94 4 45 7 99 7 120 0 25 4 37 14
37 8 0 18 5 21 11 11 16 -4 59 -20 59 -16 0 -19 35 -7 105 5 31 11 40 27 40
26 0 32 37 10 59 -20 20 -71 21 -78 2z"/>
<path d="M1794 4872 c-21 -14 -24 -46 -14 -155 6 -62 17 -183 24 -270 10 -123
17 -162 30 -175 12 -12 19 -14 24 -6 4 7 16 13 27 15 14 3 21 13 23 37 3 29 1
32 -26 32 l-29 0 -7 117 c-4 78 -3 119 4 121 16 6 31 39 24 56 -3 9 -15 16
-25 16 -14 0 -19 7 -19 29 0 15 -3 48 -6 73 -6 42 -5 45 17 44 19 -1 25 5 27
28 2 16 -2 32 -10 37 -16 11 -49 11 -64 1z"/>
<path d="M3185 4870 c-20 -32 -55 -572 -39 -583 25 -15 32 19 45 212 7 112 14
200 15 195 7 -24 34 -293 34 -334 0 -75 10 -110 31 -110 10 0 20 3 23 8 4 7
48 349 61 482 6 54 4 68 -9 79 -9 8 -19 11 -22 8 -3 -3 -12 -68 -20 -144 -8
-76 -18 -165 -23 -198 l-9 -60 -1 55 c-1 66 -28 311 -39 360 -8 35 -34 51 -47
30z"/>
<path d="M1645 4816 c-16 -11 -17 -22 -11 -82 3 -38 11 -121 16 -184 10 -119
28 -269 36 -307 4 -23 44 -34 44 -13 0 6 7 10 15 10 18 0 37 34 29 54 -3 9
-17 16 -29 16 -26 0 -27 5 -40 152 -6 59 -4 70 15 90 25 27 22 52 -6 56 -18 3
-22 12 -28 55 -9 76 -8 87 9 87 9 0 21 12 27 26 11 22 10 28 -7 40 -24 18 -46
18 -70 0z"/>
<path d="M3405 4804 c-6 -3 -10 -115 -9 -311 1 -288 2 -308 19 -308 12 0 23
14 32 40 21 58 22 62 39 150 9 44 31 142 50 219 34 136 36 176 9 176 -16 0
-17 -2 -50 -155 -14 -66 -30 -128 -35 -137 -6 -10 -11 -35 -12 -55 -1 -21 -4
53 -8 164 -5 191 -10 226 -35 217z"/>
<path d="M1470 4723 c0 -50 48 -427 57 -453 3 -8 5 -26 4 -40 -1 -14 5 -34 14
-45 15 -20 15 -20 30 -1 8 11 13 27 11 35 -3 9 -7 34 -10 56 -5 33 -2 29 15
-22 22 -62 43 -80 56 -46 4 9 -3 46 -15 82 -45 135 -60 216 -51 269 8 55 -2
157 -20 191 -9 16 -21 21 -51 21 l-40 0 0 -47z"/>
<path d="M1366 4709 c-20 -19 -20 -22 7 -277 34 -321 35 -322 53 -322 26 0 28
30 11 159 -14 110 -15 127 -2 134 8 4 15 21 15 37 0 23 -5 30 -20 30 -15 0
-20 7 -20 28 0 15 -3 57 -6 94 -7 64 -6 66 17 70 19 2 25 10 27 36 3 30 2 32
-30 31 -19 0 -41 -9 -52 -20z"/>
<path d="M3584 4678 c3 -18 7 -37 8 -43 0 -5 -7 -80 -16 -165 -9 -85 -19 -179
-22 -207 -3 -35 -10 -53 -19 -53 -44 0 -10 -85 38 -96 42 -9 63 28 33 58 -11
12 -11 46 6 229 17 186 22 216 39 228 23 17 25 66 3 75 -9 3 -29 6 -46 6 -29
0 -30 -2 -24 -32z"/>
<path d="M1106 4681 c-23 -25 -30 -77 -22 -154 6 -51 13 -72 35 -96 15 -17 35
-31 44 -31 9 0 18 -12 21 -27 14 -66 46 -291 46 -325 0 -31 4 -38 20 -38 16 0
20 7 20 33 0 56 -80 617 -90 638 -14 24 -52 25 -74 0z"/>
<path d="M3701 4578 c-11 -81 -61 -494 -61 -502 0 -2 8 -6 19 -9 16 -4 20 3
25 41 3 24 7 66 8 91 1 25 4 -1 7 -59 5 -89 9 -105 24 -108 16 -3 17 10 17
160 0 143 2 168 20 200 55 103 39 268 -26 268 -20 0 -23 -8 -33 -82z"/>
<path d="M953 4564 c-29 -33 -30 -64 -3 -64 11 0 20 6 21 13 0 6 16 -60 34
-148 19 -88 43 -203 54 -255 14 -62 19 -110 15 -141 -10 -73 9 -74 74 -6 32
34 34 46 8 61 -15 9 -20 8 -24 -4 -3 -8 -15 35 -28 95 -12 61 -34 166 -49 235
-15 69 -32 151 -38 183 -13 65 -28 72 -64 31z"/>
<path d="M3878 4548 c-44 -68 -92 -332 -86 -474 3 -77 5 -86 31 -110 l29 -26
29 28 c34 33 50 81 79 243 32 183 25 281 -25 335 -29 32 -39 32 -57 4z m53
-80 c27 -50 -46 -458 -82 -458 -26 0 -19 109 20 310 11 58 23 120 26 138 7 37
19 41 36 10z"/>
<path d="M4045 4398 c-20 -73 -85 -431 -85 -473 0 -27 4 -35 18 -35 16 0 22
22 46 160 42 242 46 241 44 -5 -1 -263 -2 -245 21 -245 21 0 32 35 95 305 44
190 49 217 37 234 -22 34 -37 -1 -71 -165 l-35 -169 -5 205 c-3 113 -10 213
-14 223 -15 32 -35 18 -51 -35z"/>
<path d="M4290 4243 c0 -18 -61 -262 -71 -283 -1 -3 -3 -9 -4 -15 -1 -5 -5
-17 -8 -25 -18 -43 -47 -184 -42 -201 4 -10 14 -19 24 -19 12 0 20 14 29 53
13 54 15 63 25 87 4 8 16 51 27 95 l20 80 -7 -110 c-12 -175 -10 -210 7 -210
14 0 71 100 98 170 11 29 11 28 5 -10 -3 -22 -16 -89 -29 -149 -28 -128 -31
-186 -9 -186 8 0 18 15 23 38 78 318 122 529 116 547 -16 41 -54 1 -104 -111
-18 -38 -37 -82 -45 -98 -11 -25 -13 -3 -11 165 l1 194 -22 3 c-17 3 -23 -2
-23 -15z"/>
<path d="M628 4221 c-23 -22 -22 -39 2 -120 10 -36 33 -129 49 -206 50 -231
58 -247 102 -208 54 49 63 151 28 322 -20 98 -41 148 -85 204 -26 32 -70 35
-96 8z m76 -68 c7 -16 22 -55 31 -88 10 -33 20 -67 23 -75 20 -57 34 -160 27
-199 -4 -18 -9 -30 -12 -27 -7 7 -103 384 -103 404 0 21 19 13 34 -15z"/>
<path d="M515 4123 c-28 -30 -32 -88 -7 -88 9 0 24 -38 42 -110 15 -60 39
-150 54 -198 23 -80 24 -91 10 -111 -14 -23 -10 -56 8 -56 5 0 25 15 43 34 26
24 35 42 35 66 0 26 -3 31 -18 28 -15 -4 -25 23 -71 189 -47 170 -52 197 -41
218 15 27 7 55 -14 55 -8 0 -27 -12 -41 -27z"/>
<path d="M434 4065 c-5 -12 18 -197 42 -350 4 -19 -4 -8 -21 30 -45 103 -49
110 -93 172 -45 64 -73 8 -29 -57 46 -68 125 -246 160 -360 16 -54 42 -65 52
-21 7 31 -7 152 -30 262 -8 36 -19 114 -25 175 -6 60 -13 119 -16 131 -7 27
-33 38 -40 18z"/>
<path d="M4546 3978 c-70 -249 -116 -437 -116 -470 0 -12 16 -37 36 -56 29
-28 38 -32 45 -21 14 23 10 44 -12 68 -23 25 -24 21 15 164 13 52 26 82 29 73
4 -9 13 -16 22 -16 20 0 20 48 0 70 -14 16 -14 24 1 79 17 62 27 73 38 46 9
-23 46 -19 46 5 0 25 -60 109 -77 110 -7 0 -19 -24 -27 -52z"/>
<path d="M2388 3933 c-10 -2 -18 -8 -18 -12 0 -5 -20 -14 -45 -21 -25 -7 -45
-16 -45 -19 0 -9 -114 -61 -134 -61 -9 0 -16 -4 -16 -10 0 -5 -6 -10 -14 -10
-8 0 -21 -6 -28 -13 -7 -7 -32 -18 -55 -25 -24 -7 -43 -17 -43 -22 0 -4 -13
-11 -30 -15 -16 -4 -30 -10 -30 -14 0 -5 -20 -14 -45 -21 -25 -7 -45 -16 -45
-21 0 -5 -11 -11 -25 -15 -14 -3 -42 -15 -62 -25 -21 -10 -43 -19 -50 -19 -7
0 -13 -4 -13 -9 0 -5 -13 -12 -30 -16 -16 -4 -30 -11 -30 -15 0 -5 -18 -14
-40 -20 -22 -6 -40 -15 -40 -20 0 -6 -6 -10 -12 -10 -7 0 -35 -12 -63 -25 -27
-14 -58 -25 -67 -25 -10 0 -18 -4 -18 -9 0 -5 -13 -12 -30 -16 -16 -4 -30 -11
-30 -16 0 -5 -20 -14 -45 -20 l-45 -11 0 -457 c0 -438 17 -866 39 -961 5 -21
5 -42 0 -47 -4 -4 0 -31 10 -59 10 -28 21 -77 25 -110 21 -172 160 -615 198
-632 4 -2 5 -9 2 -16 -3 -8 2 -16 10 -19 9 -4 16 -12 16 -18 0 -7 13 -40 29
-73 17 -34 35 -72 41 -86 5 -14 28 -56 50 -95 43 -77 57 -104 93 -185 29 -64
104 -155 178 -216 8 -7 39 -40 69 -74 95 -108 174 -185 254 -245 14 -11 38
-30 53 -43 44 -35 48 -39 70 -51 32 -16 67 -13 89 8 11 10 31 24 44 31 26 14
32 19 159 137 74 70 143 138 208 209 28 30 227 308 225 314 -1 3 8 15 18 28
11 12 20 29 20 37 0 8 4 15 8 15 5 0 41 66 81 148 90 182 81 160 141 328 72
202 95 277 92 297 -1 9 3 17 10 17 6 0 8 3 5 7 -4 3 -2 12 4 20 6 7 9 22 6 33
-3 11 -2 20 3 20 8 0 9 3 33 120 64 311 79 568 70 1193 -6 370 -8 419 -22 424
-23 8 -125 57 -131 63 -3 3 -24 12 -47 20 -24 7 -43 17 -43 21 0 4 -13 10 -30
14 -16 4 -30 10 -30 15 0 4 -12 11 -27 15 -31 7 -115 46 -123 56 -3 4 -24 12
-47 19 -24 7 -43 17 -43 21 0 4 -13 10 -30 14 -16 4 -30 11 -30 16 0 5 -6 9
-12 9 -12 0 -48 17 -254 116 -49 24 -96 44 -102 44 -7 0 -12 4 -12 9 0 5 -13
12 -30 16 -16 4 -30 11 -30 16 0 5 -7 9 -15 9 -9 0 -37 11 -63 25 -47 25 -53
26 -84 18z m132 -219 c52 -25 122 -59 155 -74 33 -15 143 -67 245 -115 102
-48 250 -118 330 -156 80 -38 161 -77 180 -86 l35 -18 3 -355 c2 -379 -10
-696 -33 -863 -97 -688 -379 -1283 -800 -1687 -118 -114 -201 -180 -223 -180
-14 0 -158 119 -213 177 -26 26 -71 73 -100 103 -209 215 -410 554 -535 900
-41 111 -127 444 -148 568 -43 251 -50 364 -50 857 l-1 479 25 13 c36 19 401
193 405 193 2 0 83 38 180 85 97 47 178 85 180 85 2 0 59 27 127 60 67 33 127
60 133 60 5 0 53 -21 105 -46z"/>
<path d="M2215 3503 c-110 -52 -223 -105 -250 -118 -28 -12 -136 -64 -242
-114 -105 -50 -203 -95 -217 -101 l-26 -10 0 -400 c0 -499 14 -661 80 -935 15
-66 37 -159 48 -206 41 -177 193 -522 315 -714 113 -177 288 -383 415 -488 88
-73 78 -76 224 67 119 117 161 164 234 262 278 376 452 819 531 1356 12 88 17
216 20 583 l5 470 -89 42 c-48 23 -146 70 -218 104 -71 33 -177 84 -235 111
-58 28 -159 75 -225 105 -66 30 -124 59 -130 63 -27 19 -54 11 -240 -77z m373
-920 l2 -233 173 -2 172 -3 0 -225 0 -225 -172 -3 -173 -2 0 -230 0 -230 -172
2 -173 3 -2 225 -2 225 -170 3 -171 2 0 230 0 230 171 2 171 3 -2 216 c0 118
2 223 6 233 6 15 24 16 173 14 l166 -3 3 -232z"/>
<path d="M4703 3872 c-6 -11 -27 -75 -47 -143 -20 -68 -41 -132 -47 -142 -5
-10 -7 -22 -4 -27 4 -6 2 -10 -3 -10 -14 0 -46 -143 -38 -173 9 -37 33 -34 41
6 3 17 10 41 16 52 5 11 25 74 44 140 l34 120 -5 -100 c-3 -55 -9 -144 -15
-199 -13 -143 -12 -156 10 -156 25 0 41 35 117 266 43 131 62 203 58 219 -14
54 -33 23 -85 -140 -29 -90 -54 -164 -55 -162 -1 1 4 58 12 127 14 132 18 298
8 324 -8 21 -27 20 -41 -2z"/>
<path d="M218 3828 c-57 -19 -56 -93 2 -303 42 -149 96 -255 130 -255 21 0 60
57 66 97 6 43 -11 169 -25 188 -5 5 -20 50 -34 99 -30 99 -67 171 -94 178 -10
3 -30 1 -45 -4z m89 -196 c44 -135 70 -292 49 -292 -17 0 -55 94 -97 238 -48
165 -50 197 -10 190 10 -2 31 -51 58 -136z"/>
<path d="M55 3743 c-28 -27 -55 -94 -55 -137 0 -62 89 -347 136 -431 53 -97
144 -54 144 69 0 30 -4 37 -17 34 -9 -2 -22 -19 -28 -38 -27 -80 -71 -27 -125
150 -18 58 -38 122 -46 143 -25 67 -15 125 28 155 23 17 21 65 -3 70 -9 2 -25
-5 -34 -15z"/>
<path d="M4885 3670 c-3 -5 2 -26 11 -46 17 -36 17 -36 -44 -259 -34 -123 -62
-233 -62 -244 0 -14 6 -21 19 -21 16 0 25 25 61 153 72 262 85 302 88 285 2
-10 12 -18 23 -18 14 0 19 7 19 30 0 17 -4 30 -8 30 -5 0 -24 22 -43 50 -33
49 -52 60 -64 40z"/>
</g>
</svg>
