<?xml version="1.0" standalone="no"?>
<!DOCTYPE svg PUBLIC "-//W3C//DTD SVG 20010904//EN"
 "http://www.w3.org/TR/2001/REC-SVG-20010904/DTD/svg10.dtd">
<svg version="1.0" xmlns="http://www.w3.org/2000/svg"
 width="500.000000pt" height="500.000000pt" viewBox="0 0 500.000000 500.000000"
 preserveAspectRatio="xMidYMid meet">

<g transform="translate(0.000000,500.000000) scale(0.100000,-0.100000)"
fill="#000000" stroke="none">
<path d="M2085 4110 c-3 -5 -5 -53 -4 -107 1 -55 -3 -110 -10 -126 -6 -16 -11
-59 -11 -96 0 -55 4 -74 21 -96 19 -23 27 -26 53 -20 17 4 51 6 74 6 31 -1 42
2 39 11 -2 7 -10 12 -17 10 -26 -6 -35 17 -32 83 3 56 7 68 23 72 10 3 19 12
19 20 0 10 -6 13 -16 9 -9 -3 -23 -6 -31 -6 -11 0 -14 -7 -9 -24 8 -31 -4
-117 -15 -110 -5 3 -20 42 -35 88 l-26 84 20 39 c11 21 23 59 27 85 6 39 4 49
-14 67 -22 22 -46 27 -56 11z m46 -41 c8 -17 8 -31 0 -60 -19 -62 -31 -56 -31
15 0 68 10 83 31 45z m6 -307 c22 -53 24 -65 12 -73 -23 -15 -38 -10 -55 16
-18 28 -23 112 -9 155 l8 25 9 -30 c5 -16 21 -59 35 -93z"/>
<path d="M3031 4097 c-6 -6 -11 -45 -12 -86 0 -42 -6 -139 -13 -216 -7 -77
-10 -144 -6 -148 11 -13 62 -13 67 0 2 7 -7 15 -22 19 l-26 6 7 92 c7 95 8
101 27 101 7 0 13 8 15 18 2 11 -3 17 -14 17 -15 0 -16 8 -10 61 3 34 6 73 6
85 0 17 6 24 20 24 11 0 20 6 20 14 0 17 -45 27 -59 13z"/>
<path d="M2380 4074 c-18 -45 -11 -104 20 -174 31 -70 38 -129 20 -174 -5 -14
-16 -26 -25 -26 -8 0 -15 -4 -15 -10 0 -5 9 -10 20 -10 56 0 65 137 16 240
-34 73 -34 150 0 150 8 0 14 7 14 15 0 26 -40 17 -50 -11z"/>
<path d="M2535 4043 c-3 -32 -15 -116 -26 -188 -11 -71 -21 -137 -22 -145 -1
-8 3 -17 8 -19 6 -3 14 16 19 42 7 40 12 47 31 47 26 0 35 -17 35 -66 0 -19 5
-34 10 -34 12 0 12 35 -3 250 -10 140 -14 165 -29 168 -13 3 -18 -8 -23 -55z
m34 -190 c1 -45 -2 -53 -17 -53 -10 0 -21 2 -24 5 -4 4 11 129 23 200 3 18 17
-99 18 -152z"/>
<path d="M2667 4083 c-2 -5 -7 -78 -11 -163 -4 -85 -9 -174 -12 -197 -5 -35
-3 -43 10 -43 13 0 16 17 18 98 2 76 6 97 17 97 20 0 26 24 7 31 -17 7 -21 50
-10 116 6 33 9 37 29 32 30 -7 41 12 16 25 -23 13 -58 14 -64 4z"/>
<path d="M2796 4072 c-10 -17 -27 -395 -18 -404 12 -12 63 -6 63 7 0 6 -10 12
-23 15 -21 6 -22 9 -19 95 1 50 5 93 8 97 2 5 13 8 24 8 25 0 25 17 -1 25 -17
5 -20 15 -20 67 0 59 1 60 24 54 33 -8 42 9 14 28 -24 17 -44 20 -52 8z"/>
<path d="M1810 3998 c0 -24 12 -134 31 -295 10 -81 14 -93 31 -93 27 0 60 19
53 31 -4 5 -17 6 -30 3 -22 -5 -24 -3 -29 53 -4 32 -9 75 -12 96 -4 33 -1 40
16 44 11 3 20 12 20 20 0 10 -7 14 -20 10 -22 -6 -27 6 -32 80 -3 39 -1 42 22
45 38 5 30 23 -12 26 -34 3 -38 1 -38 -20z"/>
<path d="M3176 4011 c-6 -9 -46 -336 -46 -374 0 -30 22 -14 25 18 11 134 30
285 35 285 8 0 38 -181 47 -282 6 -69 25 -92 37 -45 14 56 56 315 56 344 0 52
-17 38 -24 -19 -13 -103 -39 -253 -46 -266 -3 -7 -12 42 -19 110 -18 187 -41
268 -65 229z"/>
<path d="M1673 3975 c-5 -16 33 -352 44 -380 9 -25 73 -15 73 11 0 10 -8 12
-28 8 l-29 -6 -7 73 c-3 40 -9 83 -12 96 -5 19 -2 25 15 30 11 3 21 12 21 20
0 10 -6 12 -20 8 -23 -7 -26 -1 -34 73 -5 50 -4 52 19 52 16 0 25 6 25 15 0
21 -59 20 -67 0z"/>
<path d="M3393 3756 c1 -174 4 -213 14 -204 13 10 25 45 62 183 10 39 29 98
42 132 17 44 21 65 13 73 -8 8 -23 -30 -53 -132 -24 -79 -47 -150 -52 -158 -5
-9 -6 27 -2 86 6 104 -3 234 -17 234 -4 0 -7 -96 -7 -214z"/>
<path d="M1515 3940 c-6 -9 62 -389 71 -399 13 -14 13 14 0 70 -36 165 -29
182 19 41 16 -45 35 -88 43 -95 13 -10 14 -8 10 13 -4 14 -19 54 -34 90 -24
56 -28 79 -29 163 0 86 -3 100 -19 113 -23 16 -52 18 -61 4z m54 -47 c12 -41
3 -125 -10 -101 -14 24 -23 138 -11 138 6 0 16 -17 21 -37z"/>
<path d="M1425 3913 c-11 -3 -23 -8 -27 -11 -4 -4 6 -90 22 -192 16 -102 30
-191 30 -197 0 -7 5 -13 10 -13 14 0 13 42 -4 127 -13 68 -12 72 5 76 25 7 24
27 0 27 -15 0 -21 10 -26 43 -3 23 -9 57 -12 75 -4 27 -2 32 15 32 21 0 46 23
35 33 -7 8 -17 7 -48 0z"/>
<path d="M3564 3899 c-3 -6 -1 -15 6 -19 10 -6 10 -27 -3 -107 -9 -54 -20
-127 -23 -162 -6 -50 -11 -65 -26 -69 -10 -2 -18 -8 -18 -13 0 -10 43 -29 66
-29 17 0 19 27 2 32 -8 3 -8 27 1 99 28 221 32 239 52 239 28 0 23 19 -7 30
-33 13 -41 13 -50 -1z"/>
<path d="M1162 3884 c-18 -12 -22 -25 -22 -67 0 -66 17 -100 56 -111 30 -9 32
-13 52 -110 12 -56 24 -118 28 -139 4 -21 10 -35 15 -30 8 8 -64 410 -81 451
-11 26 -18 27 -48 6z m37 -51 c18 -68 23 -113 15 -113 -30 1 -54 45 -54 98 0
63 24 73 39 15z"/>
<path d="M3695 3858 c-6 -16 -65 -366 -65 -384 0 -8 4 -14 8 -14 4 0 13 42 20
92 17 122 37 144 29 32 -6 -80 0 -154 12 -154 3 0 6 53 7 118 0 101 3 122 22
152 33 55 38 110 12 143 -23 29 -38 34 -45 15z m40 -38 c7 -23 -13 -96 -32
-111 -16 -14 -16 -12 -2 68 11 64 23 79 34 43z"/>
<path d="M1007 3804 c-30 -16 -29 -35 2 -27 13 3 21 -1 24 -14 3 -10 29 -96
57 -192 37 -124 49 -176 41 -184 -32 -32 5 -36 43 -6 27 22 27 34 -1 34 -11 0
-30 52 -71 197 -32 108 -59 199 -62 201 -3 3 -18 -1 -33 -9z"/>
<path d="M3837 3763 c-22 -49 -42 -132 -57 -225 -14 -95 1 -153 40 -153 35 0
63 48 89 149 28 113 28 204 0 240 -29 37 -53 33 -72 -11z m71 -25 c10 -22 9
-44 -12 -141 -29 -139 -61 -208 -88 -191 -16 10 -7 121 17 228 32 140 52 166
83 104z"/>
<path d="M4027 3699 c-24 -39 -100 -350 -88 -362 12 -12 9 -21 51 148 18 72
36 137 41 145 5 9 9 -61 9 -167 0 -111 4 -184 10 -188 14 -8 43 63 92 223 29
96 38 136 30 144 -8 8 -14 -1 -22 -33 -6 -24 -29 -96 -50 -159 l-38 -115 1
175 c0 105 -4 183 -10 194 -10 18 -11 18 -26 -5z"/>
<path d="M4202 3412 c-61 -175 -71 -212 -53 -212 5 0 26 51 47 113 61 182 66
189 59 77 -3 -52 -10 -112 -15 -134 -10 -47 -4 -72 16 -55 7 6 39 51 70 100
31 49 57 89 59 89 2 0 -2 -19 -10 -42 -53 -169 -77 -259 -72 -265 13 -13 23
12 81 195 62 198 66 243 15 182 -17 -19 -51 -70 -76 -112 -25 -43 -47 -78 -47
-78 -1 0 0 68 2 151 3 83 1 154 -4 159 -5 5 -36 -68 -72 -168z"/>
<path d="M695 3556 c-18 -13 -16 -21 41 -192 32 -98 64 -179 70 -181 19 -6 43
25 55 70 9 35 8 55 -9 124 -27 107 -49 151 -86 174 -37 23 -46 23 -71 5z m68
-36 c37 -43 69 -135 74 -210 3 -56 -7 -105 -20 -90 -12 15 -107 312 -102 320
10 16 22 12 48 -20z"/>
<path d="M937 3513 c-34 -24 -49 -53 -29 -53 15 0 92 59 92 70 0 17 -24 11
-63 -17z"/>
<path d="M582 3487 c-23 -24 -29 -49 -12 -44 6 1 35 -63 66 -143 43 -112 53
-149 44 -162 -13 -23 -13 -28 4 -28 16 0 66 38 66 51 0 5 -8 9 -18 9 -15 0
-31 31 -76 146 -41 105 -55 149 -47 157 13 13 15 37 3 37 -5 0 -18 -10 -30
-23z"/>
<path d="M499 3445 c-3 -2 10 -75 28 -162 18 -87 32 -162 32 -168 1 -5 -19 27
-43 72 -53 98 -103 173 -116 173 -19 0 -10 -32 19 -69 40 -51 116 -178 136
-228 10 -24 21 -40 26 -37 15 9 10 68 -15 165 -19 73 -46 223 -46 255 0 5 -15
5 -21 -1z"/>
<path d="M4511 3388 c-40 -99 -90 -242 -102 -287 -13 -52 -13 -54 10 -72 13
-11 27 -19 32 -19 16 0 10 21 -12 38 l-20 17 31 83 c30 76 33 82 56 76 29 -7
32 11 5 28 -19 12 -19 13 1 62 25 63 27 65 43 42 8 -10 19 -15 25 -11 14 8
-26 65 -46 65 -8 0 -18 -10 -23 -22z"/>
<path d="M2195 3273 c-552 -189 -833 -285 -872 -300 l-43 -16 0 -237 c0 -234
21 -612 41 -722 5 -31 9 -60 7 -65 -1 -4 6 -33 14 -63 9 -30 26 -91 38 -135
25 -94 102 -260 166 -360 235 -362 254 -387 413 -517 139 -114 273 -207 393
-272 l66 -37 69 34 c89 46 229 138 327 217 350 283 602 690 700 1132 39 180
49 358 40 718 l-9 315 -335 112 c-184 61 -434 147 -555 189 -121 43 -224 78
-230 79 -5 2 -109 -31 -230 -72z m755 -216 l495 -172 3 -255 c4 -437 -18 -629
-99 -875 -139 -420 -421 -774 -813 -1019 -49 -31 -99 -56 -112 -56 -34 0 -204
104 -271 166 -15 14 -65 55 -110 90 -119 93 -261 258 -364 425 -72 115 -129
241 -182 399 -84 248 -97 353 -97 795 l0 330 418 145 c229 79 451 156 492 171
41 15 91 28 110 28 20 0 246 -73 530 -172z"/>
<path d="M1969 2959 l-454 -157 1 -323 c1 -313 2 -329 28 -454 15 -71 35 -149
46 -172 10 -23 28 -77 40 -120 36 -133 170 -359 312 -528 110 -132 276 -274
417 -360 l63 -39 34 19 c174 102 425 334 546 505 136 192 249 456 300 697 21
99 23 135 23 442 l0 334 -300 105 c-165 57 -368 127 -451 156 l-152 52 -453
-157z m621 -564 l0 -165 170 0 170 0 0 -165 0 -165 -170 0 -170 0 0 -165 0
-165 -167 2 -168 3 0 162 0 163 -167 0 -168 0 0 165 0 165 170 0 170 0 -1 158
c0 86 0 160 0 165 1 4 75 7 166 7 l165 0 0 -165z"/>
<path d="M4635 3268 c-53 -127 -113 -293 -109 -300 8 -12 24 -9 24 5 0 15 95
255 105 265 8 8 0 -102 -17 -238 -15 -117 -15 -122 -1 -127 22 -8 169 307 158
335 -6 13 -12 6 -27 -28 -44 -101 -111 -240 -115 -236 -2 2 1 32 6 67 19 120
32 260 26 279 -10 33 -32 23 -50 -22z"/>
<path d="M265 3260 c-17 -19 -18 -27 -8 -75 15 -68 74 -207 108 -251 30 -39
54 -43 80 -14 25 28 15 114 -26 219 -51 128 -107 173 -154 121z m68 -17 c24
-27 87 -177 100 -238 9 -43 8 -57 -3 -69 -12 -15 -14 -15 -30 -1 -23 21 -75
126 -106 216 -24 67 -24 72 -8 90 21 23 27 24 47 2z"/>
<path d="M124 3212 c-23 -16 -44 -58 -44 -88 0 -38 57 -179 103 -254 42 -70
77 -96 106 -81 28 16 56 70 42 84 -7 7 -14 2 -22 -16 -36 -80 -91 -26 -171
169 -41 102 -42 122 -2 153 13 10 24 24 24 30 0 12 -20 14 -36 3z"/>
<path d="M4840 3162 c0 -4 7 -17 15 -28 13 -20 9 -35 -49 -185 -35 -90 -61
-168 -58 -173 9 -16 27 21 81 166 30 79 55 145 57 147 3 3 10 -1 16 -7 16 -16
28 -15 28 1 0 7 -17 30 -38 50 -37 36 -52 45 -52 29z"/>
</g>
</svg>
